<?xml version="1.0" encoding="utf-8" standalone="no"?>
<!DOCTYPE svg PUBLIC "-//W3C//DTD SVG 1.1//EN"
  "http://www.w3.org/Graphics/SVG/1.1/DTD/svg11.dtd">
<svg xmlns:xlink="http://www.w3.org/1999/xlink" width="877.860937pt" height="343.745312pt" viewBox="0 0 877.860937 343.745312" xmlns="http://www.w3.org/2000/svg" version="1.1">
 <metadata>
  <rdf:RDF xmlns:dc="http://purl.org/dc/elements/1.1/" xmlns:cc="http://creativecommons.org/ns#" xmlns:rdf="http://www.w3.org/1999/02/22-rdf-syntax-ns#">
   <cc:Work>
    <dc:type rdf:resource="http://purl.org/dc/dcmitype/StillImage"/>
    <dc:date>2023-09-19T18:11:32.200424</dc:date>
    <dc:format>image/svg+xml</dc:format>
    <dc:creator>
     <cc:Agent>
      <dc:title>Matplotlib v3.7.0, https://matplotlib.org/</dc:title>
     </cc:Agent>
    </dc:creator>
   </cc:Work>
  </rdf:RDF>
 </metadata>
 <defs>
  <style type="text/css">*{stroke-linejoin: round; stroke-linecap: butt}</style>
 </defs>
 <g id="figure_1">
  <g id="patch_1">
   <path d="M 0 343.745312 
L 877.860937 343.745312 
L 877.860937 0 
L 0 0 
z
" style="fill: #ffffff"/>
  </g>
  <g id="axes_1">
   <g id="patch_2">
    <path d="M 33.660938 320.4 
L 279.837408 320.4 
L 279.837408 46.8 
L 33.660938 46.8 
z
" style="fill: #ffffff"/>
   </g>
   <g id="matplotlib.axis_1">
    <g id="xtick_1">
     <g id="line2d_1">
      <path d="M 68.829005 320.4 
L 68.829005 46.8 
" clip-path="url(#pe516d4a84c)" style="fill: none; stroke: #cccccc; stroke-width: 0.8; stroke-linecap: round"/>
     </g>
     <g id="text_1">
      <!-- 2025 -->
      <g style="fill: #262626" transform="translate(57.70713 334.557812) scale(0.1 -0.1)">
       <defs>
        <path id="ArialMT-32" d="M 3222 541 
L 3222 0 
L 194 0 
Q 188 203 259 391 
Q 375 700 629 1000 
Q 884 1300 1366 1694 
Q 2113 2306 2375 2664 
Q 2638 3022 2638 3341 
Q 2638 3675 2398 3904 
Q 2159 4134 1775 4134 
Q 1369 4134 1125 3890 
Q 881 3647 878 3216 
L 300 3275 
Q 359 3922 746 4261 
Q 1134 4600 1788 4600 
Q 2447 4600 2831 4234 
Q 3216 3869 3216 3328 
Q 3216 3053 3103 2787 
Q 2991 2522 2730 2228 
Q 2469 1934 1863 1422 
Q 1356 997 1212 845 
Q 1069 694 975 541 
L 3222 541 
z
" transform="scale(0.015625)"/>
        <path id="ArialMT-30" d="M 266 2259 
Q 266 3072 433 3567 
Q 600 4063 929 4331 
Q 1259 4600 1759 4600 
Q 2128 4600 2406 4451 
Q 2684 4303 2865 4023 
Q 3047 3744 3150 3342 
Q 3253 2941 3253 2259 
Q 3253 1453 3087 958 
Q 2922 463 2592 192 
Q 2263 -78 1759 -78 
Q 1097 -78 719 397 
Q 266 969 266 2259 
z
M 844 2259 
Q 844 1131 1108 757 
Q 1372 384 1759 384 
Q 2147 384 2411 759 
Q 2675 1134 2675 2259 
Q 2675 3391 2411 3762 
Q 2147 4134 1753 4134 
Q 1366 4134 1134 3806 
Q 844 3388 844 2259 
z
" transform="scale(0.015625)"/>
        <path id="ArialMT-35" d="M 266 1200 
L 856 1250 
Q 922 819 1161 601 
Q 1400 384 1738 384 
Q 2144 384 2425 690 
Q 2706 997 2706 1503 
Q 2706 1984 2436 2262 
Q 2166 2541 1728 2541 
Q 1456 2541 1237 2417 
Q 1019 2294 894 2097 
L 366 2166 
L 809 4519 
L 3088 4519 
L 3088 3981 
L 1259 3981 
L 1013 2750 
Q 1425 3038 1878 3038 
Q 2478 3038 2890 2622 
Q 3303 2206 3303 1553 
Q 3303 931 2941 478 
Q 2500 -78 1738 -78 
Q 1113 -78 717 272 
Q 322 622 266 1200 
z
" transform="scale(0.015625)"/>
       </defs>
       <use xlink:href="#ArialMT-32"/>
       <use xlink:href="#ArialMT-30" x="55.615234"/>
       <use xlink:href="#ArialMT-32" x="111.230469"/>
       <use xlink:href="#ArialMT-35" x="166.845703"/>
      </g>
     </g>
    </g>
    <g id="xtick_2">
     <g id="line2d_2">
      <path d="M 108.792717 320.4 
L 108.792717 46.8 
" clip-path="url(#pe516d4a84c)" style="fill: none; stroke: #cccccc; stroke-width: 0.8; stroke-linecap: round"/>
     </g>
     <g id="text_2">
      <!-- 2030 -->
      <g style="fill: #262626" transform="translate(97.670842 334.557812) scale(0.1 -0.1)">
       <defs>
        <path id="ArialMT-33" d="M 269 1209 
L 831 1284 
Q 928 806 1161 595 
Q 1394 384 1728 384 
Q 2125 384 2398 659 
Q 2672 934 2672 1341 
Q 2672 1728 2419 1979 
Q 2166 2231 1775 2231 
Q 1616 2231 1378 2169 
L 1441 2663 
Q 1497 2656 1531 2656 
Q 1891 2656 2178 2843 
Q 2466 3031 2466 3422 
Q 2466 3731 2256 3934 
Q 2047 4138 1716 4138 
Q 1388 4138 1169 3931 
Q 950 3725 888 3313 
L 325 3413 
Q 428 3978 793 4289 
Q 1159 4600 1703 4600 
Q 2078 4600 2393 4439 
Q 2709 4278 2876 4000 
Q 3044 3722 3044 3409 
Q 3044 3113 2884 2869 
Q 2725 2625 2413 2481 
Q 2819 2388 3044 2092 
Q 3269 1797 3269 1353 
Q 3269 753 2831 336 
Q 2394 -81 1725 -81 
Q 1122 -81 723 278 
Q 325 638 269 1209 
z
" transform="scale(0.015625)"/>
       </defs>
       <use xlink:href="#ArialMT-32"/>
       <use xlink:href="#ArialMT-30" x="55.615234"/>
       <use xlink:href="#ArialMT-33" x="111.230469"/>
       <use xlink:href="#ArialMT-30" x="166.845703"/>
      </g>
     </g>
    </g>
    <g id="xtick_3">
     <g id="line2d_3">
      <path d="M 148.75643 320.4 
L 148.75643 46.8 
" clip-path="url(#pe516d4a84c)" style="fill: none; stroke: #cccccc; stroke-width: 0.8; stroke-linecap: round"/>
     </g>
     <g id="text_3">
      <!-- 2035 -->
      <g style="fill: #262626" transform="translate(137.634555 334.557812) scale(0.1 -0.1)">
       <use xlink:href="#ArialMT-32"/>
       <use xlink:href="#ArialMT-30" x="55.615234"/>
       <use xlink:href="#ArialMT-33" x="111.230469"/>
       <use xlink:href="#ArialMT-35" x="166.845703"/>
      </g>
     </g>
    </g>
    <g id="xtick_4">
     <g id="line2d_4">
      <path d="M 188.720143 320.4 
L 188.720143 46.8 
" clip-path="url(#pe516d4a84c)" style="fill: none; stroke: #cccccc; stroke-width: 0.8; stroke-linecap: round"/>
     </g>
     <g id="text_4">
      <!-- 2040 -->
      <g style="fill: #262626" transform="translate(177.598268 334.557812) scale(0.1 -0.1)">
       <defs>
        <path id="ArialMT-34" d="M 2069 0 
L 2069 1097 
L 81 1097 
L 81 1613 
L 2172 4581 
L 2631 4581 
L 2631 1613 
L 3250 1613 
L 3250 1097 
L 2631 1097 
L 2631 0 
L 2069 0 
z
M 2069 1613 
L 2069 3678 
L 634 1613 
L 2069 1613 
z
" transform="scale(0.015625)"/>
       </defs>
       <use xlink:href="#ArialMT-32"/>
       <use xlink:href="#ArialMT-30" x="55.615234"/>
       <use xlink:href="#ArialMT-34" x="111.230469"/>
       <use xlink:href="#ArialMT-30" x="166.845703"/>
      </g>
     </g>
    </g>
    <g id="xtick_5">
     <g id="line2d_5">
      <path d="M 228.683856 320.4 
L 228.683856 46.8 
" clip-path="url(#pe516d4a84c)" style="fill: none; stroke: #cccccc; stroke-width: 0.8; stroke-linecap: round"/>
     </g>
     <g id="text_5">
      <!-- 2045 -->
      <g style="fill: #262626" transform="translate(217.561981 334.557812) scale(0.1 -0.1)">
       <use xlink:href="#ArialMT-32"/>
       <use xlink:href="#ArialMT-30" x="55.615234"/>
       <use xlink:href="#ArialMT-34" x="111.230469"/>
       <use xlink:href="#ArialMT-35" x="166.845703"/>
      </g>
     </g>
    </g>
    <g id="xtick_6">
     <g id="line2d_6">
      <path d="M 268.647569 320.4 
L 268.647569 46.8 
" clip-path="url(#pe516d4a84c)" style="fill: none; stroke: #cccccc; stroke-width: 0.8; stroke-linecap: round"/>
     </g>
     <g id="text_6">
      <!-- 2050 -->
      <g style="fill: #262626" transform="translate(257.525694 334.557812) scale(0.1 -0.1)">
       <use xlink:href="#ArialMT-32"/>
       <use xlink:href="#ArialMT-30" x="55.615234"/>
       <use xlink:href="#ArialMT-35" x="111.230469"/>
       <use xlink:href="#ArialMT-30" x="166.845703"/>
      </g>
     </g>
    </g>
   </g>
   <g id="matplotlib.axis_2">
    <g id="ytick_1">
     <g id="line2d_7">
      <path d="M 33.660938 313.934432 
L 279.837408 313.934432 
" clip-path="url(#pe516d4a84c)" style="fill: none; stroke: #cccccc; stroke-width: 0.8; stroke-linecap: round"/>
     </g>
     <g id="line2d_8">
      <defs>
       <path id="m52222abf3d" d="M 0 0 
L -3.5 0 
" style="stroke: #262626; stroke-width: 0.8"/>
      </defs>
      <g>
       <use xlink:href="#m52222abf3d" x="33.660938" y="313.934432" style="fill: #262626; stroke: #262626; stroke-width: 0.8"/>
      </g>
     </g>
     <g id="text_7">
      <!-- 17.0 -->
      <g style="fill: #262626" transform="translate(7.2 317.513338) scale(0.1 -0.1)">
       <defs>
        <path id="ArialMT-31" d="M 2384 0 
L 1822 0 
L 1822 3584 
Q 1619 3391 1289 3197 
Q 959 3003 697 2906 
L 697 3450 
Q 1169 3672 1522 3987 
Q 1875 4303 2022 4600 
L 2384 4600 
L 2384 0 
z
" transform="scale(0.015625)"/>
        <path id="ArialMT-37" d="M 303 3981 
L 303 4522 
L 3269 4522 
L 3269 4084 
Q 2831 3619 2401 2847 
Q 1972 2075 1738 1259 
Q 1569 684 1522 0 
L 944 0 
Q 953 541 1156 1306 
Q 1359 2072 1739 2783 
Q 2119 3494 2547 3981 
L 303 3981 
z
" transform="scale(0.015625)"/>
        <path id="ArialMT-2e" d="M 581 0 
L 581 641 
L 1222 641 
L 1222 0 
L 581 0 
z
" transform="scale(0.015625)"/>
       </defs>
       <use xlink:href="#ArialMT-31"/>
       <use xlink:href="#ArialMT-37" x="55.615234"/>
       <use xlink:href="#ArialMT-2e" x="111.230469"/>
       <use xlink:href="#ArialMT-30" x="139.013672"/>
      </g>
     </g>
    </g>
    <g id="ytick_2">
     <g id="line2d_9">
      <path d="M 33.660938 280.814866 
L 279.837408 280.814866 
" clip-path="url(#pe516d4a84c)" style="fill: none; stroke: #cccccc; stroke-width: 0.8; stroke-linecap: round"/>
     </g>
     <g id="line2d_10">
      <g>
       <use xlink:href="#m52222abf3d" x="33.660938" y="280.814866" style="fill: #262626; stroke: #262626; stroke-width: 0.8"/>
      </g>
     </g>
     <g id="text_8">
      <!-- 17.5 -->
      <g style="fill: #262626" transform="translate(7.2 284.393773) scale(0.1 -0.1)">
       <use xlink:href="#ArialMT-31"/>
       <use xlink:href="#ArialMT-37" x="55.615234"/>
       <use xlink:href="#ArialMT-2e" x="111.230469"/>
       <use xlink:href="#ArialMT-35" x="139.013672"/>
      </g>
     </g>
    </g>
    <g id="ytick_3">
     <g id="line2d_11">
      <path d="M 33.660938 247.695301 
L 279.837408 247.695301 
" clip-path="url(#pe516d4a84c)" style="fill: none; stroke: #cccccc; stroke-width: 0.8; stroke-linecap: round"/>
     </g>
     <g id="line2d_12">
      <g>
       <use xlink:href="#m52222abf3d" x="33.660938" y="247.695301" style="fill: #262626; stroke: #262626; stroke-width: 0.8"/>
      </g>
     </g>
     <g id="text_9">
      <!-- 18.0 -->
      <g style="fill: #262626" transform="translate(7.2 251.274207) scale(0.1 -0.1)">
       <defs>
        <path id="ArialMT-38" d="M 1131 2484 
Q 781 2613 612 2850 
Q 444 3088 444 3419 
Q 444 3919 803 4259 
Q 1163 4600 1759 4600 
Q 2359 4600 2725 4251 
Q 3091 3903 3091 3403 
Q 3091 3084 2923 2848 
Q 2756 2613 2416 2484 
Q 2838 2347 3058 2040 
Q 3278 1734 3278 1309 
Q 3278 722 2862 322 
Q 2447 -78 1769 -78 
Q 1091 -78 675 323 
Q 259 725 259 1325 
Q 259 1772 486 2073 
Q 713 2375 1131 2484 
z
M 1019 3438 
Q 1019 3113 1228 2906 
Q 1438 2700 1772 2700 
Q 2097 2700 2305 2904 
Q 2513 3109 2513 3406 
Q 2513 3716 2298 3927 
Q 2084 4138 1766 4138 
Q 1444 4138 1231 3931 
Q 1019 3725 1019 3438 
z
M 838 1322 
Q 838 1081 952 856 
Q 1066 631 1291 507 
Q 1516 384 1775 384 
Q 2178 384 2440 643 
Q 2703 903 2703 1303 
Q 2703 1709 2433 1975 
Q 2163 2241 1756 2241 
Q 1359 2241 1098 1978 
Q 838 1716 838 1322 
z
" transform="scale(0.015625)"/>
       </defs>
       <use xlink:href="#ArialMT-31"/>
       <use xlink:href="#ArialMT-38" x="55.615234"/>
       <use xlink:href="#ArialMT-2e" x="111.230469"/>
       <use xlink:href="#ArialMT-30" x="139.013672"/>
      </g>
     </g>
    </g>
    <g id="ytick_4">
     <g id="line2d_13">
      <path d="M 33.660938 214.575736 
L 279.837408 214.575736 
" clip-path="url(#pe516d4a84c)" style="fill: none; stroke: #cccccc; stroke-width: 0.8; stroke-linecap: round"/>
     </g>
     <g id="line2d_14">
      <g>
       <use xlink:href="#m52222abf3d" x="33.660938" y="214.575736" style="fill: #262626; stroke: #262626; stroke-width: 0.8"/>
      </g>
     </g>
     <g id="text_10">
      <!-- 18.5 -->
      <g style="fill: #262626" transform="translate(7.2 218.154642) scale(0.1 -0.1)">
       <use xlink:href="#ArialMT-31"/>
       <use xlink:href="#ArialMT-38" x="55.615234"/>
       <use xlink:href="#ArialMT-2e" x="111.230469"/>
       <use xlink:href="#ArialMT-35" x="139.013672"/>
      </g>
     </g>
    </g>
    <g id="ytick_5">
     <g id="line2d_15">
      <path d="M 33.660938 181.456171 
L 279.837408 181.456171 
" clip-path="url(#pe516d4a84c)" style="fill: none; stroke: #cccccc; stroke-width: 0.8; stroke-linecap: round"/>
     </g>
     <g id="line2d_16">
      <g>
       <use xlink:href="#m52222abf3d" x="33.660938" y="181.456171" style="fill: #262626; stroke: #262626; stroke-width: 0.8"/>
      </g>
     </g>
     <g id="text_11">
      <!-- 19.0 -->
      <g style="fill: #262626" transform="translate(7.2 185.035077) scale(0.1 -0.1)">
       <defs>
        <path id="ArialMT-39" d="M 350 1059 
L 891 1109 
Q 959 728 1153 556 
Q 1347 384 1650 384 
Q 1909 384 2104 503 
Q 2300 622 2425 820 
Q 2550 1019 2634 1356 
Q 2719 1694 2719 2044 
Q 2719 2081 2716 2156 
Q 2547 1888 2255 1720 
Q 1963 1553 1622 1553 
Q 1053 1553 659 1965 
Q 266 2378 266 3053 
Q 266 3750 677 4175 
Q 1088 4600 1706 4600 
Q 2153 4600 2523 4359 
Q 2894 4119 3086 3673 
Q 3278 3228 3278 2384 
Q 3278 1506 3087 986 
Q 2897 466 2520 194 
Q 2144 -78 1638 -78 
Q 1100 -78 759 220 
Q 419 519 350 1059 
z
M 2653 3081 
Q 2653 3566 2395 3850 
Q 2138 4134 1775 4134 
Q 1400 4134 1122 3828 
Q 844 3522 844 3034 
Q 844 2597 1108 2323 
Q 1372 2050 1759 2050 
Q 2150 2050 2401 2323 
Q 2653 2597 2653 3081 
z
" transform="scale(0.015625)"/>
       </defs>
       <use xlink:href="#ArialMT-31"/>
       <use xlink:href="#ArialMT-39" x="55.615234"/>
       <use xlink:href="#ArialMT-2e" x="111.230469"/>
       <use xlink:href="#ArialMT-30" x="139.013672"/>
      </g>
     </g>
    </g>
    <g id="ytick_6">
     <g id="line2d_17">
      <path d="M 33.660938 148.336605 
L 279.837408 148.336605 
" clip-path="url(#pe516d4a84c)" style="fill: none; stroke: #cccccc; stroke-width: 0.8; stroke-linecap: round"/>
     </g>
     <g id="line2d_18">
      <g>
       <use xlink:href="#m52222abf3d" x="33.660938" y="148.336605" style="fill: #262626; stroke: #262626; stroke-width: 0.8"/>
      </g>
     </g>
     <g id="text_12">
      <!-- 19.5 -->
      <g style="fill: #262626" transform="translate(7.2 151.915512) scale(0.1 -0.1)">
       <use xlink:href="#ArialMT-31"/>
       <use xlink:href="#ArialMT-39" x="55.615234"/>
       <use xlink:href="#ArialMT-2e" x="111.230469"/>
       <use xlink:href="#ArialMT-35" x="139.013672"/>
      </g>
     </g>
    </g>
    <g id="ytick_7">
     <g id="line2d_19">
      <path d="M 33.660938 115.21704 
L 279.837408 115.21704 
" clip-path="url(#pe516d4a84c)" style="fill: none; stroke: #cccccc; stroke-width: 0.8; stroke-linecap: round"/>
     </g>
     <g id="line2d_20">
      <g>
       <use xlink:href="#m52222abf3d" x="33.660938" y="115.21704" style="fill: #262626; stroke: #262626; stroke-width: 0.8"/>
      </g>
     </g>
     <g id="text_13">
      <!-- 20.0 -->
      <g style="fill: #262626" transform="translate(7.2 118.795946) scale(0.1 -0.1)">
       <use xlink:href="#ArialMT-32"/>
       <use xlink:href="#ArialMT-30" x="55.615234"/>
       <use xlink:href="#ArialMT-2e" x="111.230469"/>
       <use xlink:href="#ArialMT-30" x="139.013672"/>
      </g>
     </g>
    </g>
    <g id="ytick_8">
     <g id="line2d_21">
      <path d="M 33.660938 82.097475 
L 279.837408 82.097475 
" clip-path="url(#pe516d4a84c)" style="fill: none; stroke: #cccccc; stroke-width: 0.8; stroke-linecap: round"/>
     </g>
     <g id="line2d_22">
      <g>
       <use xlink:href="#m52222abf3d" x="33.660938" y="82.097475" style="fill: #262626; stroke: #262626; stroke-width: 0.8"/>
      </g>
     </g>
     <g id="text_14">
      <!-- 20.5 -->
      <g style="fill: #262626" transform="translate(7.2 85.676381) scale(0.1 -0.1)">
       <use xlink:href="#ArialMT-32"/>
       <use xlink:href="#ArialMT-30" x="55.615234"/>
       <use xlink:href="#ArialMT-2e" x="111.230469"/>
       <use xlink:href="#ArialMT-35" x="139.013672"/>
      </g>
     </g>
    </g>
    <g id="ytick_9">
     <g id="line2d_23">
      <path d="M 33.660938 48.977909 
L 279.837408 48.977909 
" clip-path="url(#pe516d4a84c)" style="fill: none; stroke: #cccccc; stroke-width: 0.8; stroke-linecap: round"/>
     </g>
     <g id="line2d_24">
      <g>
       <use xlink:href="#m52222abf3d" x="33.660938" y="48.977909" style="fill: #262626; stroke: #262626; stroke-width: 0.8"/>
      </g>
     </g>
     <g id="text_15">
      <!-- 21.0 -->
      <g style="fill: #262626" transform="translate(7.2 52.556816) scale(0.1 -0.1)">
       <use xlink:href="#ArialMT-32"/>
       <use xlink:href="#ArialMT-31" x="55.615234"/>
       <use xlink:href="#ArialMT-2e" x="111.230469"/>
       <use xlink:href="#ArialMT-30" x="139.013672"/>
      </g>
     </g>
    </g>
   </g>
   <g id="patch_3">
    <path d="M 92.807232 320.4 
L 92.807232 46.8 
L 172.734658 46.8 
L 172.734658 320.4 
z
" clip-path="url(#pe516d4a84c)" style="fill: #808080; opacity: 0.2; stroke: #808080; stroke-linejoin: miter"/>
   </g>
   <g id="line2d_25">
    <path d="M 44.850777 288.507879 
L 52.84352 285.460879 
L 60.836262 284.399066 
L 68.829005 290.783193 
L 76.821747 297.244158 
L 84.81449 303.178522 
L 92.807232 306.361974 
L 100.799975 307.963636 
L 108.792717 306.816375 
L 116.78546 303.697836 
L 124.778203 297.730353 
L 132.770945 288.756938 
L 140.763688 277.829469 
L 148.75643 265.864032 
L 156.749173 253.342849 
L 164.741915 239.978442 
L 172.734658 226.292113 
L 180.7274 209.762138 
L 188.720143 189.520785 
L 196.712886 168.468002 
L 204.705628 148.499554 
L 212.698371 130.419583 
L 220.691113 114.148603 
L 228.683856 100.496718 
L 236.676598 88.915468 
L 244.669341 79.608208 
L 252.662083 71.819149 
L 260.654826 65.511196 
L 268.647569 59.236364 
" clip-path="url(#pe516d4a84c)" style="fill: none; stroke: #1f77b4; stroke-width: 1.5; stroke-linecap: round"/>
   </g>
   <g id="line2d_26">
    <path d="M 60.836262 320.4 
L 60.836262 46.8 
" clip-path="url(#pe516d4a84c)" style="fill: none; stroke-dasharray: 5.55,2.4; stroke-dashoffset: 0; stroke: #808080; stroke-width: 1.5"/>
   </g>
   <g id="patch_4">
    <path d="M 33.660938 320.4 
L 33.660938 46.8 
" style="fill: none; stroke: #cccccc; stroke-width: 0.8; stroke-linejoin: miter; stroke-linecap: square"/>
   </g>
   <g id="patch_5">
    <path d="M 279.837408 320.4 
L 279.837408 46.8 
" style="fill: none; stroke: #cccccc; stroke-width: 0.8; stroke-linejoin: miter; stroke-linecap: square"/>
   </g>
   <g id="patch_6">
    <path d="M 33.660937 320.4 
L 279.837408 320.4 
" style="fill: none; stroke: #cccccc; stroke-width: 0.8; stroke-linejoin: miter; stroke-linecap: square"/>
   </g>
   <g id="patch_7">
    <path d="M 33.660937 46.8 
L 279.837408 46.8 
" style="fill: none; stroke: #cccccc; stroke-width: 0.8; stroke-linejoin: miter; stroke-linecap: square"/>
   </g>
   <g id="text_16">
    <!-- Ageing costs, interest rate, growth -->
    <g style="fill: #262626" transform="translate(50.925579 40.8) scale(0.14 -0.14)">
     <defs>
      <path id="ArialMT-41" d="M -9 0 
L 1750 4581 
L 2403 4581 
L 4278 0 
L 3588 0 
L 3053 1388 
L 1138 1388 
L 634 0 
L -9 0 
z
M 1313 1881 
L 2866 1881 
L 2388 3150 
Q 2169 3728 2063 4100 
Q 1975 3659 1816 3225 
L 1313 1881 
z
" transform="scale(0.015625)"/>
      <path id="ArialMT-67" d="M 319 -275 
L 866 -356 
Q 900 -609 1056 -725 
Q 1266 -881 1628 -881 
Q 2019 -881 2231 -725 
Q 2444 -569 2519 -288 
Q 2563 -116 2559 434 
Q 2191 0 1641 0 
Q 956 0 581 494 
Q 206 988 206 1678 
Q 206 2153 378 2554 
Q 550 2956 876 3175 
Q 1203 3394 1644 3394 
Q 2231 3394 2613 2919 
L 2613 3319 
L 3131 3319 
L 3131 450 
Q 3131 -325 2973 -648 
Q 2816 -972 2473 -1159 
Q 2131 -1347 1631 -1347 
Q 1038 -1347 672 -1080 
Q 306 -813 319 -275 
z
M 784 1719 
Q 784 1066 1043 766 
Q 1303 466 1694 466 
Q 2081 466 2343 764 
Q 2606 1063 2606 1700 
Q 2606 2309 2336 2618 
Q 2066 2928 1684 2928 
Q 1309 2928 1046 2623 
Q 784 2319 784 1719 
z
" transform="scale(0.015625)"/>
      <path id="ArialMT-65" d="M 2694 1069 
L 3275 997 
Q 3138 488 2766 206 
Q 2394 -75 1816 -75 
Q 1088 -75 661 373 
Q 234 822 234 1631 
Q 234 2469 665 2931 
Q 1097 3394 1784 3394 
Q 2450 3394 2872 2941 
Q 3294 2488 3294 1666 
Q 3294 1616 3291 1516 
L 816 1516 
Q 847 969 1125 678 
Q 1403 388 1819 388 
Q 2128 388 2347 550 
Q 2566 713 2694 1069 
z
M 847 1978 
L 2700 1978 
Q 2663 2397 2488 2606 
Q 2219 2931 1791 2931 
Q 1403 2931 1139 2672 
Q 875 2413 847 1978 
z
" transform="scale(0.015625)"/>
      <path id="ArialMT-69" d="M 425 3934 
L 425 4581 
L 988 4581 
L 988 3934 
L 425 3934 
z
M 425 0 
L 425 3319 
L 988 3319 
L 988 0 
L 425 0 
z
" transform="scale(0.015625)"/>
      <path id="ArialMT-6e" d="M 422 0 
L 422 3319 
L 928 3319 
L 928 2847 
Q 1294 3394 1984 3394 
Q 2284 3394 2536 3286 
Q 2788 3178 2913 3003 
Q 3038 2828 3088 2588 
Q 3119 2431 3119 2041 
L 3119 0 
L 2556 0 
L 2556 2019 
Q 2556 2363 2490 2533 
Q 2425 2703 2258 2804 
Q 2091 2906 1866 2906 
Q 1506 2906 1245 2678 
Q 984 2450 984 1813 
L 984 0 
L 422 0 
z
" transform="scale(0.015625)"/>
      <path id="ArialMT-20" transform="scale(0.015625)"/>
      <path id="ArialMT-63" d="M 2588 1216 
L 3141 1144 
Q 3050 572 2676 248 
Q 2303 -75 1759 -75 
Q 1078 -75 664 370 
Q 250 816 250 1647 
Q 250 2184 428 2587 
Q 606 2991 970 3192 
Q 1334 3394 1763 3394 
Q 2303 3394 2647 3120 
Q 2991 2847 3088 2344 
L 2541 2259 
Q 2463 2594 2264 2762 
Q 2066 2931 1784 2931 
Q 1359 2931 1093 2626 
Q 828 2322 828 1663 
Q 828 994 1084 691 
Q 1341 388 1753 388 
Q 2084 388 2306 591 
Q 2528 794 2588 1216 
z
" transform="scale(0.015625)"/>
      <path id="ArialMT-6f" d="M 213 1659 
Q 213 2581 725 3025 
Q 1153 3394 1769 3394 
Q 2453 3394 2887 2945 
Q 3322 2497 3322 1706 
Q 3322 1066 3130 698 
Q 2938 331 2570 128 
Q 2203 -75 1769 -75 
Q 1072 -75 642 372 
Q 213 819 213 1659 
z
M 791 1659 
Q 791 1022 1069 705 
Q 1347 388 1769 388 
Q 2188 388 2466 706 
Q 2744 1025 2744 1678 
Q 2744 2294 2464 2611 
Q 2184 2928 1769 2928 
Q 1347 2928 1069 2612 
Q 791 2297 791 1659 
z
" transform="scale(0.015625)"/>
      <path id="ArialMT-73" d="M 197 991 
L 753 1078 
Q 800 744 1014 566 
Q 1228 388 1613 388 
Q 2000 388 2187 545 
Q 2375 703 2375 916 
Q 2375 1106 2209 1216 
Q 2094 1291 1634 1406 
Q 1016 1563 777 1677 
Q 538 1791 414 1992 
Q 291 2194 291 2438 
Q 291 2659 392 2848 
Q 494 3038 669 3163 
Q 800 3259 1026 3326 
Q 1253 3394 1513 3394 
Q 1903 3394 2198 3281 
Q 2494 3169 2634 2976 
Q 2775 2784 2828 2463 
L 2278 2388 
Q 2241 2644 2061 2787 
Q 1881 2931 1553 2931 
Q 1166 2931 1000 2803 
Q 834 2675 834 2503 
Q 834 2394 903 2306 
Q 972 2216 1119 2156 
Q 1203 2125 1616 2013 
Q 2213 1853 2448 1751 
Q 2684 1650 2818 1456 
Q 2953 1263 2953 975 
Q 2953 694 2789 445 
Q 2625 197 2315 61 
Q 2006 -75 1616 -75 
Q 969 -75 630 194 
Q 291 463 197 991 
z
" transform="scale(0.015625)"/>
      <path id="ArialMT-74" d="M 1650 503 
L 1731 6 
Q 1494 -44 1306 -44 
Q 1000 -44 831 53 
Q 663 150 594 308 
Q 525 466 525 972 
L 525 2881 
L 113 2881 
L 113 3319 
L 525 3319 
L 525 4141 
L 1084 4478 
L 1084 3319 
L 1650 3319 
L 1650 2881 
L 1084 2881 
L 1084 941 
Q 1084 700 1114 631 
Q 1144 563 1211 522 
Q 1278 481 1403 481 
Q 1497 481 1650 503 
z
" transform="scale(0.015625)"/>
      <path id="ArialMT-2c" d="M 569 0 
L 569 641 
L 1209 641 
L 1209 0 
Q 1209 -353 1084 -570 
Q 959 -788 688 -906 
L 531 -666 
Q 709 -588 793 -436 
Q 878 -284 888 0 
L 569 0 
z
" transform="scale(0.015625)"/>
      <path id="ArialMT-72" d="M 416 0 
L 416 3319 
L 922 3319 
L 922 2816 
Q 1116 3169 1280 3281 
Q 1444 3394 1641 3394 
Q 1925 3394 2219 3213 
L 2025 2691 
Q 1819 2813 1613 2813 
Q 1428 2813 1281 2702 
Q 1134 2591 1072 2394 
Q 978 2094 978 1738 
L 978 0 
L 416 0 
z
" transform="scale(0.015625)"/>
      <path id="ArialMT-61" d="M 2588 409 
Q 2275 144 1986 34 
Q 1697 -75 1366 -75 
Q 819 -75 525 192 
Q 231 459 231 875 
Q 231 1119 342 1320 
Q 453 1522 633 1644 
Q 813 1766 1038 1828 
Q 1203 1872 1538 1913 
Q 2219 1994 2541 2106 
Q 2544 2222 2544 2253 
Q 2544 2597 2384 2738 
Q 2169 2928 1744 2928 
Q 1347 2928 1158 2789 
Q 969 2650 878 2297 
L 328 2372 
Q 403 2725 575 2942 
Q 747 3159 1072 3276 
Q 1397 3394 1825 3394 
Q 2250 3394 2515 3294 
Q 2781 3194 2906 3042 
Q 3031 2891 3081 2659 
Q 3109 2516 3109 2141 
L 3109 1391 
Q 3109 606 3145 398 
Q 3181 191 3288 0 
L 2700 0 
Q 2613 175 2588 409 
z
M 2541 1666 
Q 2234 1541 1622 1453 
Q 1275 1403 1131 1340 
Q 988 1278 909 1158 
Q 831 1038 831 891 
Q 831 666 1001 516 
Q 1172 366 1500 366 
Q 1825 366 2078 508 
Q 2331 650 2450 897 
Q 2541 1088 2541 1459 
L 2541 1666 
z
" transform="scale(0.015625)"/>
      <path id="ArialMT-77" d="M 1034 0 
L 19 3319 
L 600 3319 
L 1128 1403 
L 1325 691 
Q 1338 744 1497 1375 
L 2025 3319 
L 2603 3319 
L 3100 1394 
L 3266 759 
L 3456 1400 
L 4025 3319 
L 4572 3319 
L 3534 0 
L 2950 0 
L 2422 1988 
L 2294 2553 
L 1622 0 
L 1034 0 
z
" transform="scale(0.015625)"/>
      <path id="ArialMT-68" d="M 422 0 
L 422 4581 
L 984 4581 
L 984 2938 
Q 1378 3394 1978 3394 
Q 2347 3394 2619 3248 
Q 2891 3103 3008 2847 
Q 3125 2591 3125 2103 
L 3125 0 
L 2563 0 
L 2563 2103 
Q 2563 2525 2380 2717 
Q 2197 2909 1863 2909 
Q 1613 2909 1392 2779 
Q 1172 2650 1078 2428 
Q 984 2206 984 1816 
L 984 0 
L 422 0 
z
" transform="scale(0.015625)"/>
     </defs>
     <use xlink:href="#ArialMT-41"/>
     <use xlink:href="#ArialMT-67" x="66.699219"/>
     <use xlink:href="#ArialMT-65" x="122.314453"/>
     <use xlink:href="#ArialMT-69" x="177.929688"/>
     <use xlink:href="#ArialMT-6e" x="200.146484"/>
     <use xlink:href="#ArialMT-67" x="255.761719"/>
     <use xlink:href="#ArialMT-20" x="311.376953"/>
     <use xlink:href="#ArialMT-63" x="339.160156"/>
     <use xlink:href="#ArialMT-6f" x="389.160156"/>
     <use xlink:href="#ArialMT-73" x="444.775391"/>
     <use xlink:href="#ArialMT-74" x="494.775391"/>
     <use xlink:href="#ArialMT-73" x="522.558594"/>
     <use xlink:href="#ArialMT-2c" x="572.558594"/>
     <use xlink:href="#ArialMT-20" x="600.341797"/>
     <use xlink:href="#ArialMT-69" x="628.125"/>
     <use xlink:href="#ArialMT-6e" x="650.341797"/>
     <use xlink:href="#ArialMT-74" x="705.957031"/>
     <use xlink:href="#ArialMT-65" x="733.740234"/>
     <use xlink:href="#ArialMT-72" x="789.355469"/>
     <use xlink:href="#ArialMT-65" x="822.65625"/>
     <use xlink:href="#ArialMT-73" x="878.271484"/>
     <use xlink:href="#ArialMT-74" x="928.271484"/>
     <use xlink:href="#ArialMT-20" x="956.054688"/>
     <use xlink:href="#ArialMT-72" x="983.837891"/>
     <use xlink:href="#ArialMT-61" x="1017.138672"/>
     <use xlink:href="#ArialMT-74" x="1072.753906"/>
     <use xlink:href="#ArialMT-65" x="1100.537109"/>
     <use xlink:href="#ArialMT-2c" x="1156.152344"/>
     <use xlink:href="#ArialMT-20" x="1183.935547"/>
     <use xlink:href="#ArialMT-67" x="1211.71875"/>
     <use xlink:href="#ArialMT-72" x="1267.333984"/>
     <use xlink:href="#ArialMT-6f" x="1300.634766"/>
     <use xlink:href="#ArialMT-77" x="1356.25"/>
     <use xlink:href="#ArialMT-74" x="1428.466797"/>
     <use xlink:href="#ArialMT-68" x="1456.25"/>
    </g>
   </g>
   <g id="legend_1">
    <g id="patch_8">
     <path d="M 40.660938 97.83125 
L 195.292188 97.83125 
Q 197.292188 97.83125 197.292188 95.83125 
L 197.292188 53.8 
Q 197.292188 51.8 195.292188 51.8 
L 40.660938 51.8 
Q 38.660938 51.8 38.660938 53.8 
L 38.660938 95.83125 
Q 38.660938 97.83125 40.660938 97.83125 
z
" style="fill: #ffffff; opacity: 0.8; stroke: #cccccc; stroke-linejoin: miter"/>
    </g>
    <g id="line2d_27">
     <path d="M 42.660938 59.457812 
L 52.660938 59.457812 
L 62.660938 59.457812 
" style="fill: none; stroke: #1f77b4; stroke-width: 1.5; stroke-linecap: round"/>
    </g>
    <g id="text_17">
     <!-- Ageing costs -->
     <g style="fill: #262626" transform="translate(70.660938 62.957812) scale(0.1 -0.1)">
      <use xlink:href="#ArialMT-41"/>
      <use xlink:href="#ArialMT-67" x="66.699219"/>
      <use xlink:href="#ArialMT-65" x="122.314453"/>
      <use xlink:href="#ArialMT-69" x="177.929688"/>
      <use xlink:href="#ArialMT-6e" x="200.146484"/>
      <use xlink:href="#ArialMT-67" x="255.761719"/>
      <use xlink:href="#ArialMT-20" x="311.376953"/>
      <use xlink:href="#ArialMT-63" x="339.160156"/>
      <use xlink:href="#ArialMT-6f" x="389.160156"/>
      <use xlink:href="#ArialMT-73" x="444.775391"/>
      <use xlink:href="#ArialMT-74" x="494.775391"/>
      <use xlink:href="#ArialMT-73" x="522.558594"/>
     </g>
    </g>
    <g id="line2d_28">
     <path d="M 42.660938 73.842187 
L 52.660938 73.842187 
L 62.660938 73.842187 
" style="fill: none; stroke: #ff7f0e; stroke-width: 1.5; stroke-linecap: round"/>
    </g>
    <g id="text_18">
     <!-- Implicit interest rate (right) -->
     <g style="fill: #262626" transform="translate(70.660938 77.342187) scale(0.1 -0.1)">
      <defs>
       <path id="ArialMT-49" d="M 597 0 
L 597 4581 
L 1203 4581 
L 1203 0 
L 597 0 
z
" transform="scale(0.015625)"/>
       <path id="ArialMT-6d" d="M 422 0 
L 422 3319 
L 925 3319 
L 925 2853 
Q 1081 3097 1340 3245 
Q 1600 3394 1931 3394 
Q 2300 3394 2536 3241 
Q 2772 3088 2869 2813 
Q 3263 3394 3894 3394 
Q 4388 3394 4653 3120 
Q 4919 2847 4919 2278 
L 4919 0 
L 4359 0 
L 4359 2091 
Q 4359 2428 4304 2576 
Q 4250 2725 4106 2815 
Q 3963 2906 3769 2906 
Q 3419 2906 3187 2673 
Q 2956 2441 2956 1928 
L 2956 0 
L 2394 0 
L 2394 2156 
Q 2394 2531 2256 2718 
Q 2119 2906 1806 2906 
Q 1569 2906 1367 2781 
Q 1166 2656 1075 2415 
Q 984 2175 984 1722 
L 984 0 
L 422 0 
z
" transform="scale(0.015625)"/>
       <path id="ArialMT-70" d="M 422 -1272 
L 422 3319 
L 934 3319 
L 934 2888 
Q 1116 3141 1344 3267 
Q 1572 3394 1897 3394 
Q 2322 3394 2647 3175 
Q 2972 2956 3137 2557 
Q 3303 2159 3303 1684 
Q 3303 1175 3120 767 
Q 2938 359 2589 142 
Q 2241 -75 1856 -75 
Q 1575 -75 1351 44 
Q 1128 163 984 344 
L 984 -1272 
L 422 -1272 
z
M 931 1641 
Q 931 1000 1190 694 
Q 1450 388 1819 388 
Q 2194 388 2461 705 
Q 2728 1022 2728 1688 
Q 2728 2322 2467 2637 
Q 2206 2953 1844 2953 
Q 1484 2953 1207 2617 
Q 931 2281 931 1641 
z
" transform="scale(0.015625)"/>
       <path id="ArialMT-6c" d="M 409 0 
L 409 4581 
L 972 4581 
L 972 0 
L 409 0 
z
" transform="scale(0.015625)"/>
       <path id="ArialMT-28" d="M 1497 -1347 
Q 1031 -759 709 28 
Q 388 816 388 1659 
Q 388 2403 628 3084 
Q 909 3875 1497 4659 
L 1900 4659 
Q 1522 4009 1400 3731 
Q 1209 3300 1100 2831 
Q 966 2247 966 1656 
Q 966 153 1900 -1347 
L 1497 -1347 
z
" transform="scale(0.015625)"/>
       <path id="ArialMT-29" d="M 791 -1347 
L 388 -1347 
Q 1322 153 1322 1656 
Q 1322 2244 1188 2822 
Q 1081 3291 891 3722 
Q 769 4003 388 4659 
L 791 4659 
Q 1378 3875 1659 3084 
Q 1900 2403 1900 1659 
Q 1900 816 1576 28 
Q 1253 -759 791 -1347 
z
" transform="scale(0.015625)"/>
      </defs>
      <use xlink:href="#ArialMT-49"/>
      <use xlink:href="#ArialMT-6d" x="27.783203"/>
      <use xlink:href="#ArialMT-70" x="111.083984"/>
      <use xlink:href="#ArialMT-6c" x="166.699219"/>
      <use xlink:href="#ArialMT-69" x="188.916016"/>
      <use xlink:href="#ArialMT-63" x="211.132812"/>
      <use xlink:href="#ArialMT-69" x="261.132812"/>
      <use xlink:href="#ArialMT-74" x="283.349609"/>
      <use xlink:href="#ArialMT-20" x="311.132812"/>
      <use xlink:href="#ArialMT-69" x="338.916016"/>
      <use xlink:href="#ArialMT-6e" x="361.132812"/>
      <use xlink:href="#ArialMT-74" x="416.748047"/>
      <use xlink:href="#ArialMT-65" x="444.53125"/>
      <use xlink:href="#ArialMT-72" x="500.146484"/>
      <use xlink:href="#ArialMT-65" x="533.447266"/>
      <use xlink:href="#ArialMT-73" x="589.0625"/>
      <use xlink:href="#ArialMT-74" x="639.0625"/>
      <use xlink:href="#ArialMT-20" x="666.845703"/>
      <use xlink:href="#ArialMT-72" x="694.628906"/>
      <use xlink:href="#ArialMT-61" x="727.929688"/>
      <use xlink:href="#ArialMT-74" x="783.544922"/>
      <use xlink:href="#ArialMT-65" x="811.328125"/>
      <use xlink:href="#ArialMT-20" x="866.943359"/>
      <use xlink:href="#ArialMT-28" x="894.726562"/>
      <use xlink:href="#ArialMT-72" x="928.027344"/>
      <use xlink:href="#ArialMT-69" x="961.328125"/>
      <use xlink:href="#ArialMT-67" x="983.544922"/>
      <use xlink:href="#ArialMT-68" x="1039.160156"/>
      <use xlink:href="#ArialMT-74" x="1094.775391"/>
      <use xlink:href="#ArialMT-29" x="1122.558594"/>
     </g>
    </g>
    <g id="line2d_29">
     <path d="M 42.660938 88.226562 
L 52.660938 88.226562 
L 62.660938 88.226562 
" style="fill: none; stroke: #2ca02c; stroke-width: 1.5; stroke-linecap: round"/>
    </g>
    <g id="text_19">
     <!-- Nominal GDP growth (right) -->
     <g style="fill: #262626" transform="translate(70.660938 91.726562) scale(0.1 -0.1)">
      <defs>
       <path id="ArialMT-4e" d="M 488 0 
L 488 4581 
L 1109 4581 
L 3516 984 
L 3516 4581 
L 4097 4581 
L 4097 0 
L 3475 0 
L 1069 3600 
L 1069 0 
L 488 0 
z
" transform="scale(0.015625)"/>
       <path id="ArialMT-47" d="M 2638 1797 
L 2638 2334 
L 4578 2338 
L 4578 638 
Q 4131 281 3656 101 
Q 3181 -78 2681 -78 
Q 2006 -78 1454 211 
Q 903 500 622 1047 
Q 341 1594 341 2269 
Q 341 2938 620 3517 
Q 900 4097 1425 4378 
Q 1950 4659 2634 4659 
Q 3131 4659 3532 4498 
Q 3934 4338 4162 4050 
Q 4391 3763 4509 3300 
L 3963 3150 
Q 3859 3500 3706 3700 
Q 3553 3900 3268 4020 
Q 2984 4141 2638 4141 
Q 2222 4141 1919 4014 
Q 1616 3888 1430 3681 
Q 1244 3475 1141 3228 
Q 966 2803 966 2306 
Q 966 1694 1177 1281 
Q 1388 869 1791 669 
Q 2194 469 2647 469 
Q 3041 469 3416 620 
Q 3791 772 3984 944 
L 3984 1797 
L 2638 1797 
z
" transform="scale(0.015625)"/>
       <path id="ArialMT-44" d="M 494 0 
L 494 4581 
L 2072 4581 
Q 2606 4581 2888 4516 
Q 3281 4425 3559 4188 
Q 3922 3881 4101 3404 
Q 4281 2928 4281 2316 
Q 4281 1794 4159 1391 
Q 4038 988 3847 723 
Q 3656 459 3429 307 
Q 3203 156 2883 78 
Q 2563 0 2147 0 
L 494 0 
z
M 1100 541 
L 2078 541 
Q 2531 541 2789 625 
Q 3047 709 3200 863 
Q 3416 1078 3536 1442 
Q 3656 1806 3656 2325 
Q 3656 3044 3420 3430 
Q 3184 3816 2847 3947 
Q 2603 4041 2063 4041 
L 1100 4041 
L 1100 541 
z
" transform="scale(0.015625)"/>
       <path id="ArialMT-50" d="M 494 0 
L 494 4581 
L 2222 4581 
Q 2678 4581 2919 4538 
Q 3256 4481 3484 4323 
Q 3713 4166 3852 3881 
Q 3991 3597 3991 3256 
Q 3991 2672 3619 2267 
Q 3247 1863 2275 1863 
L 1100 1863 
L 1100 0 
L 494 0 
z
M 1100 2403 
L 2284 2403 
Q 2872 2403 3119 2622 
Q 3366 2841 3366 3238 
Q 3366 3525 3220 3729 
Q 3075 3934 2838 4000 
Q 2684 4041 2272 4041 
L 1100 4041 
L 1100 2403 
z
" transform="scale(0.015625)"/>
      </defs>
      <use xlink:href="#ArialMT-4e"/>
      <use xlink:href="#ArialMT-6f" x="72.216797"/>
      <use xlink:href="#ArialMT-6d" x="127.832031"/>
      <use xlink:href="#ArialMT-69" x="211.132812"/>
      <use xlink:href="#ArialMT-6e" x="233.349609"/>
      <use xlink:href="#ArialMT-61" x="288.964844"/>
      <use xlink:href="#ArialMT-6c" x="344.580078"/>
      <use xlink:href="#ArialMT-20" x="366.796875"/>
      <use xlink:href="#ArialMT-47" x="394.580078"/>
      <use xlink:href="#ArialMT-44" x="472.363281"/>
      <use xlink:href="#ArialMT-50" x="544.580078"/>
      <use xlink:href="#ArialMT-20" x="609.529297"/>
      <use xlink:href="#ArialMT-67" x="637.3125"/>
      <use xlink:href="#ArialMT-72" x="692.927734"/>
      <use xlink:href="#ArialMT-6f" x="726.228516"/>
      <use xlink:href="#ArialMT-77" x="781.84375"/>
      <use xlink:href="#ArialMT-74" x="854.060547"/>
      <use xlink:href="#ArialMT-68" x="881.84375"/>
      <use xlink:href="#ArialMT-20" x="937.458984"/>
      <use xlink:href="#ArialMT-28" x="965.242188"/>
      <use xlink:href="#ArialMT-72" x="998.542969"/>
      <use xlink:href="#ArialMT-69" x="1031.84375"/>
      <use xlink:href="#ArialMT-67" x="1054.060547"/>
      <use xlink:href="#ArialMT-68" x="1109.675781"/>
      <use xlink:href="#ArialMT-74" x="1165.291016"/>
      <use xlink:href="#ArialMT-29" x="1193.074219"/>
     </g>
    </g>
   </g>
  </g>
  <g id="axes_2">
   <g id="patch_9">
    <path d="M 329.072702 320.4 
L 575.249173 320.4 
L 575.249173 46.8 
L 329.072702 46.8 
z
" style="fill: #ffffff"/>
   </g>
   <g id="matplotlib.axis_3">
    <g id="xtick_7">
     <g id="line2d_30">
      <path d="M 364.240769 320.4 
L 364.240769 46.8 
" clip-path="url(#p4ca323226e)" style="fill: none; stroke: #cccccc; stroke-width: 0.8; stroke-linecap: round"/>
     </g>
     <g id="text_20">
      <!-- 2025 -->
      <g style="fill: #262626" transform="translate(353.118894 334.557812) scale(0.1 -0.1)">
       <use xlink:href="#ArialMT-32"/>
       <use xlink:href="#ArialMT-30" x="55.615234"/>
       <use xlink:href="#ArialMT-32" x="111.230469"/>
       <use xlink:href="#ArialMT-35" x="166.845703"/>
      </g>
     </g>
    </g>
    <g id="xtick_8">
     <g id="line2d_31">
      <path d="M 404.204482 320.4 
L 404.204482 46.8 
" clip-path="url(#p4ca323226e)" style="fill: none; stroke: #cccccc; stroke-width: 0.8; stroke-linecap: round"/>
     </g>
     <g id="text_21">
      <!-- 2030 -->
      <g style="fill: #262626" transform="translate(393.082607 334.557812) scale(0.1 -0.1)">
       <use xlink:href="#ArialMT-32"/>
       <use xlink:href="#ArialMT-30" x="55.615234"/>
       <use xlink:href="#ArialMT-33" x="111.230469"/>
       <use xlink:href="#ArialMT-30" x="166.845703"/>
      </g>
     </g>
    </g>
    <g id="xtick_9">
     <g id="line2d_32">
      <path d="M 444.168195 320.4 
L 444.168195 46.8 
" clip-path="url(#p4ca323226e)" style="fill: none; stroke: #cccccc; stroke-width: 0.8; stroke-linecap: round"/>
     </g>
     <g id="text_22">
      <!-- 2035 -->
      <g style="fill: #262626" transform="translate(433.04632 334.557812) scale(0.1 -0.1)">
       <use xlink:href="#ArialMT-32"/>
       <use xlink:href="#ArialMT-30" x="55.615234"/>
       <use xlink:href="#ArialMT-33" x="111.230469"/>
       <use xlink:href="#ArialMT-35" x="166.845703"/>
      </g>
     </g>
    </g>
    <g id="xtick_10">
     <g id="line2d_33">
      <path d="M 484.131908 320.4 
L 484.131908 46.8 
" clip-path="url(#p4ca323226e)" style="fill: none; stroke: #cccccc; stroke-width: 0.8; stroke-linecap: round"/>
     </g>
     <g id="text_23">
      <!-- 2040 -->
      <g style="fill: #262626" transform="translate(473.010033 334.557812) scale(0.1 -0.1)">
       <use xlink:href="#ArialMT-32"/>
       <use xlink:href="#ArialMT-30" x="55.615234"/>
       <use xlink:href="#ArialMT-34" x="111.230469"/>
       <use xlink:href="#ArialMT-30" x="166.845703"/>
      </g>
     </g>
    </g>
    <g id="xtick_11">
     <g id="line2d_34">
      <path d="M 524.09562 320.4 
L 524.09562 46.8 
" clip-path="url(#p4ca323226e)" style="fill: none; stroke: #cccccc; stroke-width: 0.8; stroke-linecap: round"/>
     </g>
     <g id="text_24">
      <!-- 2045 -->
      <g style="fill: #262626" transform="translate(512.973745 334.557812) scale(0.1 -0.1)">
       <use xlink:href="#ArialMT-32"/>
       <use xlink:href="#ArialMT-30" x="55.615234"/>
       <use xlink:href="#ArialMT-34" x="111.230469"/>
       <use xlink:href="#ArialMT-35" x="166.845703"/>
      </g>
     </g>
    </g>
    <g id="xtick_12">
     <g id="line2d_35">
      <path d="M 564.059333 320.4 
L 564.059333 46.8 
" clip-path="url(#p4ca323226e)" style="fill: none; stroke: #cccccc; stroke-width: 0.8; stroke-linecap: round"/>
     </g>
     <g id="text_25">
      <!-- 2050 -->
      <g style="fill: #262626" transform="translate(552.937458 334.557812) scale(0.1 -0.1)">
       <use xlink:href="#ArialMT-32"/>
       <use xlink:href="#ArialMT-30" x="55.615234"/>
       <use xlink:href="#ArialMT-35" x="111.230469"/>
       <use xlink:href="#ArialMT-30" x="166.845703"/>
      </g>
     </g>
    </g>
   </g>
   <g id="matplotlib.axis_4">
    <g id="ytick_10">
     <g id="line2d_36">
      <path d="M 329.072702 296.488064 
L 575.249173 296.488064 
" clip-path="url(#p4ca323226e)" style="fill: none; stroke: #cccccc; stroke-width: 0.8; stroke-linecap: round"/>
     </g>
     <g id="text_26">
      <!-- −4 -->
      <g style="fill: #262626" transform="translate(310.67114 300.066971) scale(0.1 -0.1)">
       <defs>
        <path id="ArialMT-2212" d="M 3381 1997 
L 356 1997 
L 356 2522 
L 3381 2522 
L 3381 1997 
z
" transform="scale(0.015625)"/>
       </defs>
       <use xlink:href="#ArialMT-2212"/>
       <use xlink:href="#ArialMT-34" x="58.398438"/>
      </g>
     </g>
    </g>
    <g id="ytick_11">
     <g id="line2d_37">
      <path d="M 329.072702 264.499097 
L 575.249173 264.499097 
" clip-path="url(#p4ca323226e)" style="fill: none; stroke: #cccccc; stroke-width: 0.8; stroke-linecap: round"/>
     </g>
     <g id="text_27">
      <!-- −3 -->
      <g style="fill: #262626" transform="translate(310.67114 268.078003) scale(0.1 -0.1)">
       <use xlink:href="#ArialMT-2212"/>
       <use xlink:href="#ArialMT-33" x="58.398438"/>
      </g>
     </g>
    </g>
    <g id="ytick_12">
     <g id="line2d_38">
      <path d="M 329.072702 232.51013 
L 575.249173 232.51013 
" clip-path="url(#p4ca323226e)" style="fill: none; stroke: #cccccc; stroke-width: 0.8; stroke-linecap: round"/>
     </g>
     <g id="text_28">
      <!-- −2 -->
      <g style="fill: #262626" transform="translate(310.67114 236.089036) scale(0.1 -0.1)">
       <use xlink:href="#ArialMT-2212"/>
       <use xlink:href="#ArialMT-32" x="58.398438"/>
      </g>
     </g>
    </g>
    <g id="ytick_13">
     <g id="line2d_39">
      <path d="M 329.072702 200.521163 
L 575.249173 200.521163 
" clip-path="url(#p4ca323226e)" style="fill: none; stroke: #cccccc; stroke-width: 0.8; stroke-linecap: round"/>
     </g>
     <g id="text_29">
      <!-- −1 -->
      <g style="fill: #262626" transform="translate(310.67114 204.100069) scale(0.1 -0.1)">
       <use xlink:href="#ArialMT-2212"/>
       <use xlink:href="#ArialMT-31" x="58.398438"/>
      </g>
     </g>
    </g>
    <g id="ytick_14">
     <g id="line2d_40">
      <path d="M 329.072702 168.532196 
L 575.249173 168.532196 
" clip-path="url(#p4ca323226e)" style="fill: none; stroke: #cccccc; stroke-width: 0.8; stroke-linecap: round"/>
     </g>
     <g id="text_30">
      <!-- 0 -->
      <g style="fill: #262626" transform="translate(316.511765 172.111102) scale(0.1 -0.1)">
       <use xlink:href="#ArialMT-30"/>
      </g>
     </g>
    </g>
    <g id="ytick_15">
     <g id="line2d_41">
      <path d="M 329.072702 136.543229 
L 575.249173 136.543229 
" clip-path="url(#p4ca323226e)" style="fill: none; stroke: #cccccc; stroke-width: 0.8; stroke-linecap: round"/>
     </g>
     <g id="text_31">
      <!-- 1 -->
      <g style="fill: #262626" transform="translate(316.511765 140.122135) scale(0.1 -0.1)">
       <use xlink:href="#ArialMT-31"/>
      </g>
     </g>
    </g>
    <g id="ytick_16">
     <g id="line2d_42">
      <path d="M 329.072702 104.554262 
L 575.249173 104.554262 
" clip-path="url(#p4ca323226e)" style="fill: none; stroke: #cccccc; stroke-width: 0.8; stroke-linecap: round"/>
     </g>
     <g id="text_32">
      <!-- 2 -->
      <g style="fill: #262626" transform="translate(316.511765 108.133168) scale(0.1 -0.1)">
       <use xlink:href="#ArialMT-32"/>
      </g>
     </g>
    </g>
    <g id="ytick_17">
     <g id="line2d_43">
      <path d="M 329.072702 72.565294 
L 575.249173 72.565294 
" clip-path="url(#p4ca323226e)" style="fill: none; stroke: #cccccc; stroke-width: 0.8; stroke-linecap: round"/>
     </g>
     <g id="text_33">
      <!-- 3 -->
      <g style="fill: #262626" transform="translate(316.511765 76.144201) scale(0.1 -0.1)">
       <use xlink:href="#ArialMT-33"/>
      </g>
     </g>
    </g>
   </g>
   <g id="patch_10">
    <path d="M 388.218997 320.4 
L 388.218997 46.8 
L 468.146423 46.8 
L 468.146423 320.4 
z
" clip-path="url(#p4ca323226e)" style="fill: #808080; opacity: 0.2; stroke: #808080; stroke-linejoin: miter"/>
   </g>
   <g id="line2d_44">
    <path d="M 340.262542 283.049499 
L 348.255284 148.379147 
L 356.248027 153.47179 
L 364.240769 130.106307 
L 372.233512 106.740823 
L 380.226255 83.37534 
L 388.218997 60.009857 
L 396.21174 60.009857 
L 404.204482 60.009857 
L 412.197225 60.009857 
L 420.189967 60.009857 
L 428.18271 60.009857 
L 436.175452 60.009857 
L 444.168195 60.009857 
L 452.160937 60.009857 
L 460.15368 60.009857 
L 468.146423 60.009857 
L 476.139165 60.009857 
L 484.131908 60.009857 
L 492.12465 60.009857 
L 500.117393 60.009857 
L 508.110135 60.009857 
L 516.102878 60.009857 
L 524.09562 60.009857 
L 532.088363 60.009857 
L 540.081106 60.009857 
L 548.073848 60.009857 
L 556.066591 60.009857 
L 564.059333 60.009857 
" clip-path="url(#p4ca323226e)" style="fill: none; stroke: #1f77b4; stroke-width: 1.5; stroke-linecap: round"/>
   </g>
   <g id="line2d_45">
    <path d="M 340.262542 283.049499 
L 348.255284 148.379147 
L 356.248027 153.47179 
L 364.240769 130.106307 
L 372.233512 106.740823 
L 380.226255 83.37534 
L 388.218997 60.009857 
L 396.21174 59.236364 
L 404.204482 59.790413 
L 412.197225 61.296453 
L 420.189967 64.178339 
L 428.18271 68.511885 
L 436.175452 73.789104 
L 444.168195 79.567591 
L 452.160937 85.614466 
L 460.15368 92.06856 
L 468.146423 98.67812 
L 476.139165 106.660967 
L 484.131908 116.436156 
L 492.12465 126.603209 
L 500.117393 136.246603 
L 508.110135 144.977992 
L 516.102878 152.835762 
L 524.09562 159.428688 
L 532.088363 165.021639 
L 540.081106 169.516408 
L 548.073848 173.277991 
L 556.066591 176.3243 
L 564.059333 179.354615 
" clip-path="url(#p4ca323226e)" style="fill: none; stroke: #ff7f0e; stroke-width: 1.5; stroke-linecap: round"/>
   </g>
   <g id="line2d_46">
    <path d="M 340.262542 279.011807 
L 348.255284 171.770695 
L 356.248027 171.397061 
L 364.240769 150.135299 
L 372.233512 126.226472 
L 380.226255 99.671395 
L 388.218997 76.44555 
L 396.21174 67.873275 
L 404.204482 63.27468 
L 412.197225 62.274221 
L 420.189967 65.295749 
L 428.18271 69.768933 
L 436.175452 75.185794 
L 444.168195 81.103922 
L 452.160937 87.290438 
L 460.15368 93.884174 
L 468.146423 100.633376 
L 476.139165 108.755864 
L 484.131908 118.670691 
L 492.12465 128.977385 
L 500.117393 138.760421 
L 508.110135 147.631451 
L 516.102878 155.628859 
L 524.09562 162.361427 
L 532.088363 168.094019 
L 540.081106 172.72843 
L 548.073848 176.629654 
L 556.066591 179.815602 
L 564.059333 182.985558 
" clip-path="url(#p4ca323226e)" style="fill: none; stroke: #2ca02c; stroke-width: 1.5; stroke-linecap: round"/>
   </g>
   <g id="line2d_47">
    <path d="M 348.255284 293.061875 
L 356.248027 307.963636 
L 364.240769 295.058716 
L 372.233512 276.382559 
L 380.226255 252.376316 
L 388.218997 229.469145 
L 396.21174 218.255423 
L 404.204482 210.271844 
L 412.197225 205.563493 
L 420.189967 204.800704 
L 428.18271 205.43346 
L 436.175452 206.763218 
L 444.168195 208.434976 
L 452.160937 210.411441 
L 460.15368 212.891902 
L 468.146423 215.704236 
L 476.139165 220.183097 
L 484.131908 226.839194 
L 492.12465 234.306065 
L 500.117393 241.642211 
L 508.110135 248.404567 
L 516.102878 254.551347 
L 524.09562 259.612778 
L 532.088363 263.801526 
L 540.081106 266.954294 
L 548.073848 269.350085 
L 556.066591 270.98062 
L 564.059333 272.53943 
" clip-path="url(#p4ca323226e)" style="fill: none; stroke: #d62728; stroke-width: 1.5; stroke-linecap: round"/>
   </g>
   <g id="line2d_48">
    <path d="M 356.248027 320.4 
L 356.248027 46.8 
" clip-path="url(#p4ca323226e)" style="fill: none; stroke-dasharray: 5.55,2.4; stroke-dashoffset: 0; stroke: #808080; stroke-width: 1.5"/>
   </g>
   <g id="patch_11">
    <path d="M 329.072702 320.4 
L 329.072702 46.8 
" style="fill: none; stroke: #cccccc; stroke-width: 0.8; stroke-linejoin: miter; stroke-linecap: square"/>
   </g>
   <g id="patch_12">
    <path d="M 575.249173 320.4 
L 575.249173 46.8 
" style="fill: none; stroke: #cccccc; stroke-width: 0.8; stroke-linejoin: miter; stroke-linecap: square"/>
   </g>
   <g id="patch_13">
    <path d="M 329.072702 320.4 
L 575.249173 320.4 
" style="fill: none; stroke: #cccccc; stroke-width: 0.8; stroke-linejoin: miter; stroke-linecap: square"/>
   </g>
   <g id="patch_14">
    <path d="M 329.072702 46.8 
L 575.249173 46.8 
" style="fill: none; stroke: #cccccc; stroke-width: 0.8; stroke-linejoin: miter; stroke-linecap: square"/>
   </g>
   <g id="text_34">
    <!-- Budget balance -->
    <g style="fill: #262626" transform="translate(403.513125 40.8) scale(0.14 -0.14)">
     <defs>
      <path id="ArialMT-42" d="M 469 0 
L 469 4581 
L 2188 4581 
Q 2713 4581 3030 4442 
Q 3347 4303 3526 4014 
Q 3706 3725 3706 3409 
Q 3706 3116 3547 2856 
Q 3388 2597 3066 2438 
Q 3481 2316 3704 2022 
Q 3928 1728 3928 1328 
Q 3928 1006 3792 729 
Q 3656 453 3456 303 
Q 3256 153 2954 76 
Q 2653 0 2216 0 
L 469 0 
z
M 1075 2656 
L 2066 2656 
Q 2469 2656 2644 2709 
Q 2875 2778 2992 2937 
Q 3109 3097 3109 3338 
Q 3109 3566 3000 3739 
Q 2891 3913 2687 3977 
Q 2484 4041 1991 4041 
L 1075 4041 
L 1075 2656 
z
M 1075 541 
L 2216 541 
Q 2509 541 2628 563 
Q 2838 600 2978 687 
Q 3119 775 3209 942 
Q 3300 1109 3300 1328 
Q 3300 1584 3169 1773 
Q 3038 1963 2805 2039 
Q 2572 2116 2134 2116 
L 1075 2116 
L 1075 541 
z
" transform="scale(0.015625)"/>
      <path id="ArialMT-75" d="M 2597 0 
L 2597 488 
Q 2209 -75 1544 -75 
Q 1250 -75 995 37 
Q 741 150 617 320 
Q 494 491 444 738 
Q 409 903 409 1263 
L 409 3319 
L 972 3319 
L 972 1478 
Q 972 1038 1006 884 
Q 1059 663 1231 536 
Q 1403 409 1656 409 
Q 1909 409 2131 539 
Q 2353 669 2445 892 
Q 2538 1116 2538 1541 
L 2538 3319 
L 3100 3319 
L 3100 0 
L 2597 0 
z
" transform="scale(0.015625)"/>
      <path id="ArialMT-64" d="M 2575 0 
L 2575 419 
Q 2259 -75 1647 -75 
Q 1250 -75 917 144 
Q 584 363 401 755 
Q 219 1147 219 1656 
Q 219 2153 384 2558 
Q 550 2963 881 3178 
Q 1213 3394 1622 3394 
Q 1922 3394 2156 3267 
Q 2391 3141 2538 2938 
L 2538 4581 
L 3097 4581 
L 3097 0 
L 2575 0 
z
M 797 1656 
Q 797 1019 1065 703 
Q 1334 388 1700 388 
Q 2069 388 2326 689 
Q 2584 991 2584 1609 
Q 2584 2291 2321 2609 
Q 2059 2928 1675 2928 
Q 1300 2928 1048 2622 
Q 797 2316 797 1656 
z
" transform="scale(0.015625)"/>
      <path id="ArialMT-62" d="M 941 0 
L 419 0 
L 419 4581 
L 981 4581 
L 981 2947 
Q 1338 3394 1891 3394 
Q 2197 3394 2470 3270 
Q 2744 3147 2920 2923 
Q 3097 2700 3197 2384 
Q 3297 2069 3297 1709 
Q 3297 856 2875 390 
Q 2453 -75 1863 -75 
Q 1275 -75 941 416 
L 941 0 
z
M 934 1684 
Q 934 1088 1097 822 
Q 1363 388 1816 388 
Q 2184 388 2453 708 
Q 2722 1028 2722 1663 
Q 2722 2313 2464 2622 
Q 2206 2931 1841 2931 
Q 1472 2931 1203 2611 
Q 934 2291 934 1684 
z
" transform="scale(0.015625)"/>
     </defs>
     <use xlink:href="#ArialMT-42"/>
     <use xlink:href="#ArialMT-75" x="66.699219"/>
     <use xlink:href="#ArialMT-64" x="122.314453"/>
     <use xlink:href="#ArialMT-67" x="177.929688"/>
     <use xlink:href="#ArialMT-65" x="233.544922"/>
     <use xlink:href="#ArialMT-74" x="289.160156"/>
     <use xlink:href="#ArialMT-20" x="316.943359"/>
     <use xlink:href="#ArialMT-62" x="344.726562"/>
     <use xlink:href="#ArialMT-61" x="400.341797"/>
     <use xlink:href="#ArialMT-6c" x="455.957031"/>
     <use xlink:href="#ArialMT-61" x="478.173828"/>
     <use xlink:href="#ArialMT-6e" x="533.789062"/>
     <use xlink:href="#ArialMT-63" x="589.404297"/>
     <use xlink:href="#ArialMT-65" x="639.404297"/>
    </g>
   </g>
   <g id="legend_2">
    <g id="patch_15">
     <path d="M 359.508548 315.4 
L 568.249173 315.4 
Q 570.249173 315.4 570.249173 313.4 
L 570.249173 257.345312 
Q 570.249173 255.345312 568.249173 255.345312 
L 359.508548 255.345312 
Q 357.508548 255.345312 357.508548 257.345312 
L 357.508548 313.4 
Q 357.508548 315.4 359.508548 315.4 
z
" style="fill: #ffffff; opacity: 0.8; stroke: #cccccc; stroke-linejoin: miter"/>
    </g>
    <g id="line2d_49">
     <path d="M 361.508548 263.003125 
L 371.508548 263.003125 
L 381.508548 263.003125 
" style="fill: none; stroke: #1f77b4; stroke-width: 1.5; stroke-linecap: round"/>
    </g>
    <g id="text_35">
     <!-- Age-adjusted structural primary balance -->
     <g style="fill: #262626" transform="translate(389.508548 266.503125) scale(0.1 -0.1)">
      <defs>
       <path id="ArialMT-2d" d="M 203 1375 
L 203 1941 
L 1931 1941 
L 1931 1375 
L 203 1375 
z
" transform="scale(0.015625)"/>
       <path id="ArialMT-6a" d="M 419 3928 
L 419 4581 
L 981 4581 
L 981 3928 
L 419 3928 
z
M -294 -1288 
L -188 -809 
Q -19 -853 78 -853 
Q 250 -853 334 -739 
Q 419 -625 419 -169 
L 419 3319 
L 981 3319 
L 981 -181 
Q 981 -794 822 -1034 
Q 619 -1347 147 -1347 
Q -81 -1347 -294 -1288 
z
" transform="scale(0.015625)"/>
       <path id="ArialMT-79" d="M 397 -1278 
L 334 -750 
Q 519 -800 656 -800 
Q 844 -800 956 -737 
Q 1069 -675 1141 -563 
Q 1194 -478 1313 -144 
Q 1328 -97 1363 -6 
L 103 3319 
L 709 3319 
L 1400 1397 
Q 1534 1031 1641 628 
Q 1738 1016 1872 1384 
L 2581 3319 
L 3144 3319 
L 1881 -56 
Q 1678 -603 1566 -809 
Q 1416 -1088 1222 -1217 
Q 1028 -1347 759 -1347 
Q 597 -1347 397 -1278 
z
" transform="scale(0.015625)"/>
      </defs>
      <use xlink:href="#ArialMT-41"/>
      <use xlink:href="#ArialMT-67" x="66.699219"/>
      <use xlink:href="#ArialMT-65" x="122.314453"/>
      <use xlink:href="#ArialMT-2d" x="177.929688"/>
      <use xlink:href="#ArialMT-61" x="211.230469"/>
      <use xlink:href="#ArialMT-64" x="266.845703"/>
      <use xlink:href="#ArialMT-6a" x="322.460938"/>
      <use xlink:href="#ArialMT-75" x="344.677734"/>
      <use xlink:href="#ArialMT-73" x="400.292969"/>
      <use xlink:href="#ArialMT-74" x="450.292969"/>
      <use xlink:href="#ArialMT-65" x="478.076172"/>
      <use xlink:href="#ArialMT-64" x="533.691406"/>
      <use xlink:href="#ArialMT-20" x="589.306641"/>
      <use xlink:href="#ArialMT-73" x="617.089844"/>
      <use xlink:href="#ArialMT-74" x="667.089844"/>
      <use xlink:href="#ArialMT-72" x="694.873047"/>
      <use xlink:href="#ArialMT-75" x="728.173828"/>
      <use xlink:href="#ArialMT-63" x="783.789062"/>
      <use xlink:href="#ArialMT-74" x="833.789062"/>
      <use xlink:href="#ArialMT-75" x="861.572266"/>
      <use xlink:href="#ArialMT-72" x="917.1875"/>
      <use xlink:href="#ArialMT-61" x="950.488281"/>
      <use xlink:href="#ArialMT-6c" x="1006.103516"/>
      <use xlink:href="#ArialMT-20" x="1028.320312"/>
      <use xlink:href="#ArialMT-70" x="1056.103516"/>
      <use xlink:href="#ArialMT-72" x="1111.71875"/>
      <use xlink:href="#ArialMT-69" x="1145.019531"/>
      <use xlink:href="#ArialMT-6d" x="1167.236328"/>
      <use xlink:href="#ArialMT-61" x="1250.537109"/>
      <use xlink:href="#ArialMT-72" x="1306.152344"/>
      <use xlink:href="#ArialMT-79" x="1339.453125"/>
      <use xlink:href="#ArialMT-20" x="1389.453125"/>
      <use xlink:href="#ArialMT-62" x="1417.236328"/>
      <use xlink:href="#ArialMT-61" x="1472.851562"/>
      <use xlink:href="#ArialMT-6c" x="1528.466797"/>
      <use xlink:href="#ArialMT-61" x="1550.683594"/>
      <use xlink:href="#ArialMT-6e" x="1606.298828"/>
      <use xlink:href="#ArialMT-63" x="1661.914062"/>
      <use xlink:href="#ArialMT-65" x="1711.914062"/>
     </g>
    </g>
    <g id="line2d_50">
     <path d="M 361.508548 277.3875 
L 371.508548 277.3875 
L 381.508548 277.3875 
" style="fill: none; stroke: #ff7f0e; stroke-width: 1.5; stroke-linecap: round"/>
    </g>
    <g id="text_36">
     <!-- Structural primary balance -->
     <g style="fill: #262626" transform="translate(389.508548 280.8875) scale(0.1 -0.1)">
      <defs>
       <path id="ArialMT-53" d="M 288 1472 
L 859 1522 
Q 900 1178 1048 958 
Q 1197 738 1509 602 
Q 1822 466 2213 466 
Q 2559 466 2825 569 
Q 3091 672 3220 851 
Q 3350 1031 3350 1244 
Q 3350 1459 3225 1620 
Q 3100 1781 2813 1891 
Q 2628 1963 1997 2114 
Q 1366 2266 1113 2400 
Q 784 2572 623 2826 
Q 463 3081 463 3397 
Q 463 3744 659 4045 
Q 856 4347 1234 4503 
Q 1613 4659 2075 4659 
Q 2584 4659 2973 4495 
Q 3363 4331 3572 4012 
Q 3781 3694 3797 3291 
L 3216 3247 
Q 3169 3681 2898 3903 
Q 2628 4125 2100 4125 
Q 1550 4125 1298 3923 
Q 1047 3722 1047 3438 
Q 1047 3191 1225 3031 
Q 1400 2872 2139 2705 
Q 2878 2538 3153 2413 
Q 3553 2228 3743 1945 
Q 3934 1663 3934 1294 
Q 3934 928 3725 604 
Q 3516 281 3123 101 
Q 2731 -78 2241 -78 
Q 1619 -78 1198 103 
Q 778 284 539 648 
Q 300 1013 288 1472 
z
" transform="scale(0.015625)"/>
      </defs>
      <use xlink:href="#ArialMT-53"/>
      <use xlink:href="#ArialMT-74" x="66.699219"/>
      <use xlink:href="#ArialMT-72" x="94.482422"/>
      <use xlink:href="#ArialMT-75" x="127.783203"/>
      <use xlink:href="#ArialMT-63" x="183.398438"/>
      <use xlink:href="#ArialMT-74" x="233.398438"/>
      <use xlink:href="#ArialMT-75" x="261.181641"/>
      <use xlink:href="#ArialMT-72" x="316.796875"/>
      <use xlink:href="#ArialMT-61" x="350.097656"/>
      <use xlink:href="#ArialMT-6c" x="405.712891"/>
      <use xlink:href="#ArialMT-20" x="427.929688"/>
      <use xlink:href="#ArialMT-70" x="455.712891"/>
      <use xlink:href="#ArialMT-72" x="511.328125"/>
      <use xlink:href="#ArialMT-69" x="544.628906"/>
      <use xlink:href="#ArialMT-6d" x="566.845703"/>
      <use xlink:href="#ArialMT-61" x="650.146484"/>
      <use xlink:href="#ArialMT-72" x="705.761719"/>
      <use xlink:href="#ArialMT-79" x="739.0625"/>
      <use xlink:href="#ArialMT-20" x="789.0625"/>
      <use xlink:href="#ArialMT-62" x="816.845703"/>
      <use xlink:href="#ArialMT-61" x="872.460938"/>
      <use xlink:href="#ArialMT-6c" x="928.076172"/>
      <use xlink:href="#ArialMT-61" x="950.292969"/>
      <use xlink:href="#ArialMT-6e" x="1005.908203"/>
      <use xlink:href="#ArialMT-63" x="1061.523438"/>
      <use xlink:href="#ArialMT-65" x="1111.523438"/>
     </g>
    </g>
    <g id="line2d_51">
     <path d="M 361.508548 291.65 
L 371.508548 291.65 
L 381.508548 291.65 
" style="fill: none; stroke: #2ca02c; stroke-width: 1.5; stroke-linecap: round"/>
    </g>
    <g id="text_37">
     <!-- Primary balance -->
     <g style="fill: #262626" transform="translate(389.508548 295.15) scale(0.1 -0.1)">
      <use xlink:href="#ArialMT-50"/>
      <use xlink:href="#ArialMT-72" x="66.699219"/>
      <use xlink:href="#ArialMT-69" x="100"/>
      <use xlink:href="#ArialMT-6d" x="122.216797"/>
      <use xlink:href="#ArialMT-61" x="205.517578"/>
      <use xlink:href="#ArialMT-72" x="261.132812"/>
      <use xlink:href="#ArialMT-79" x="294.433594"/>
      <use xlink:href="#ArialMT-20" x="344.433594"/>
      <use xlink:href="#ArialMT-62" x="372.216797"/>
      <use xlink:href="#ArialMT-61" x="427.832031"/>
      <use xlink:href="#ArialMT-6c" x="483.447266"/>
      <use xlink:href="#ArialMT-61" x="505.664062"/>
      <use xlink:href="#ArialMT-6e" x="561.279297"/>
      <use xlink:href="#ArialMT-63" x="616.894531"/>
      <use xlink:href="#ArialMT-65" x="666.894531"/>
     </g>
    </g>
    <g id="line2d_52">
     <path d="M 361.508548 305.9125 
L 371.508548 305.9125 
L 381.508548 305.9125 
" style="fill: none; stroke: #d62728; stroke-width: 1.5; stroke-linecap: round"/>
    </g>
    <g id="text_38">
     <!-- Overall balance -->
     <g style="fill: #262626" transform="translate(389.508548 309.4125) scale(0.1 -0.1)">
      <defs>
       <path id="ArialMT-4f" d="M 309 2231 
Q 309 3372 921 4017 
Q 1534 4663 2503 4663 
Q 3138 4663 3647 4359 
Q 4156 4056 4423 3514 
Q 4691 2972 4691 2284 
Q 4691 1588 4409 1038 
Q 4128 488 3612 205 
Q 3097 -78 2500 -78 
Q 1853 -78 1343 234 
Q 834 547 571 1087 
Q 309 1628 309 2231 
z
M 934 2222 
Q 934 1394 1379 917 
Q 1825 441 2497 441 
Q 3181 441 3623 922 
Q 4066 1403 4066 2288 
Q 4066 2847 3877 3264 
Q 3688 3681 3323 3911 
Q 2959 4141 2506 4141 
Q 1863 4141 1398 3698 
Q 934 3256 934 2222 
z
" transform="scale(0.015625)"/>
       <path id="ArialMT-76" d="M 1344 0 
L 81 3319 
L 675 3319 
L 1388 1331 
Q 1503 1009 1600 663 
Q 1675 925 1809 1294 
L 2547 3319 
L 3125 3319 
L 1869 0 
L 1344 0 
z
" transform="scale(0.015625)"/>
      </defs>
      <use xlink:href="#ArialMT-4f"/>
      <use xlink:href="#ArialMT-76" x="77.783203"/>
      <use xlink:href="#ArialMT-65" x="127.783203"/>
      <use xlink:href="#ArialMT-72" x="183.398438"/>
      <use xlink:href="#ArialMT-61" x="216.699219"/>
      <use xlink:href="#ArialMT-6c" x="272.314453"/>
      <use xlink:href="#ArialMT-6c" x="294.53125"/>
      <use xlink:href="#ArialMT-20" x="316.748047"/>
      <use xlink:href="#ArialMT-62" x="344.53125"/>
      <use xlink:href="#ArialMT-61" x="400.146484"/>
      <use xlink:href="#ArialMT-6c" x="455.761719"/>
      <use xlink:href="#ArialMT-61" x="477.978516"/>
      <use xlink:href="#ArialMT-6e" x="533.59375"/>
      <use xlink:href="#ArialMT-63" x="589.208984"/>
      <use xlink:href="#ArialMT-65" x="639.208984"/>
     </g>
    </g>
   </g>
  </g>
  <g id="axes_3">
   <g id="patch_16">
    <path d="M 624.484467 320.4 
L 870.660938 320.4 
L 870.660938 46.8 
L 624.484467 46.8 
z
" style="fill: #ffffff"/>
   </g>
   <g id="matplotlib.axis_5">
    <g id="xtick_13">
     <g id="line2d_53">
      <path d="M 659.652534 320.4 
L 659.652534 46.8 
" clip-path="url(#p044239d3b7)" style="fill: none; stroke: #cccccc; stroke-width: 0.8; stroke-linecap: round"/>
     </g>
     <g id="text_39">
      <!-- 2025 -->
      <g style="fill: #262626" transform="translate(648.530659 334.557812) scale(0.1 -0.1)">
       <use xlink:href="#ArialMT-32"/>
       <use xlink:href="#ArialMT-30" x="55.615234"/>
       <use xlink:href="#ArialMT-32" x="111.230469"/>
       <use xlink:href="#ArialMT-35" x="166.845703"/>
      </g>
     </g>
    </g>
    <g id="xtick_14">
     <g id="line2d_54">
      <path d="M 699.616247 320.4 
L 699.616247 46.8 
" clip-path="url(#p044239d3b7)" style="fill: none; stroke: #cccccc; stroke-width: 0.8; stroke-linecap: round"/>
     </g>
     <g id="text_40">
      <!-- 2030 -->
      <g style="fill: #262626" transform="translate(688.494372 334.557812) scale(0.1 -0.1)">
       <use xlink:href="#ArialMT-32"/>
       <use xlink:href="#ArialMT-30" x="55.615234"/>
       <use xlink:href="#ArialMT-33" x="111.230469"/>
       <use xlink:href="#ArialMT-30" x="166.845703"/>
      </g>
     </g>
    </g>
    <g id="xtick_15">
     <g id="line2d_55">
      <path d="M 739.57996 320.4 
L 739.57996 46.8 
" clip-path="url(#p044239d3b7)" style="fill: none; stroke: #cccccc; stroke-width: 0.8; stroke-linecap: round"/>
     </g>
     <g id="text_41">
      <!-- 2035 -->
      <g style="fill: #262626" transform="translate(728.458085 334.557812) scale(0.1 -0.1)">
       <use xlink:href="#ArialMT-32"/>
       <use xlink:href="#ArialMT-30" x="55.615234"/>
       <use xlink:href="#ArialMT-33" x="111.230469"/>
       <use xlink:href="#ArialMT-35" x="166.845703"/>
      </g>
     </g>
    </g>
    <g id="xtick_16">
     <g id="line2d_56">
      <path d="M 779.543672 320.4 
L 779.543672 46.8 
" clip-path="url(#p044239d3b7)" style="fill: none; stroke: #cccccc; stroke-width: 0.8; stroke-linecap: round"/>
     </g>
     <g id="text_42">
      <!-- 2040 -->
      <g style="fill: #262626" transform="translate(768.421797 334.557812) scale(0.1 -0.1)">
       <use xlink:href="#ArialMT-32"/>
       <use xlink:href="#ArialMT-30" x="55.615234"/>
       <use xlink:href="#ArialMT-34" x="111.230469"/>
       <use xlink:href="#ArialMT-30" x="166.845703"/>
      </g>
     </g>
    </g>
    <g id="xtick_17">
     <g id="line2d_57">
      <path d="M 819.507385 320.4 
L 819.507385 46.8 
" clip-path="url(#p044239d3b7)" style="fill: none; stroke: #cccccc; stroke-width: 0.8; stroke-linecap: round"/>
     </g>
     <g id="text_43">
      <!-- 2045 -->
      <g style="fill: #262626" transform="translate(808.38551 334.557812) scale(0.1 -0.1)">
       <use xlink:href="#ArialMT-32"/>
       <use xlink:href="#ArialMT-30" x="55.615234"/>
       <use xlink:href="#ArialMT-34" x="111.230469"/>
       <use xlink:href="#ArialMT-35" x="166.845703"/>
      </g>
     </g>
    </g>
    <g id="xtick_18">
     <g id="line2d_58">
      <path d="M 859.471098 320.4 
L 859.471098 46.8 
" clip-path="url(#p044239d3b7)" style="fill: none; stroke: #cccccc; stroke-width: 0.8; stroke-linecap: round"/>
     </g>
     <g id="text_44">
      <!-- 2050 -->
      <g style="fill: #262626" transform="translate(848.349223 334.557812) scale(0.1 -0.1)">
       <use xlink:href="#ArialMT-32"/>
       <use xlink:href="#ArialMT-30" x="55.615234"/>
       <use xlink:href="#ArialMT-35" x="111.230469"/>
       <use xlink:href="#ArialMT-30" x="166.845703"/>
      </g>
     </g>
    </g>
   </g>
   <g id="matplotlib.axis_6">
    <g id="ytick_18">
     <g id="line2d_59">
      <path d="M 624.484467 289.921767 
L 870.660938 289.921767 
" clip-path="url(#p044239d3b7)" style="fill: none; stroke: #cccccc; stroke-width: 0.8; stroke-linecap: round"/>
     </g>
     <g id="text_45">
      <!-- 40 -->
      <g style="fill: #262626" transform="translate(606.362592 293.500673) scale(0.1 -0.1)">
       <use xlink:href="#ArialMT-34"/>
       <use xlink:href="#ArialMT-30" x="55.615234"/>
      </g>
     </g>
    </g>
    <g id="ytick_19">
     <g id="line2d_60">
      <path d="M 624.484467 258.567622 
L 870.660938 258.567622 
" clip-path="url(#p044239d3b7)" style="fill: none; stroke: #cccccc; stroke-width: 0.8; stroke-linecap: round"/>
     </g>
     <g id="text_46">
      <!-- 45 -->
      <g style="fill: #262626" transform="translate(606.362592 262.146529) scale(0.1 -0.1)">
       <use xlink:href="#ArialMT-34"/>
       <use xlink:href="#ArialMT-35" x="55.615234"/>
      </g>
     </g>
    </g>
    <g id="ytick_20">
     <g id="line2d_61">
      <path d="M 624.484467 227.213478 
L 870.660938 227.213478 
" clip-path="url(#p044239d3b7)" style="fill: none; stroke: #cccccc; stroke-width: 0.8; stroke-linecap: round"/>
     </g>
     <g id="text_47">
      <!-- 50 -->
      <g style="fill: #262626" transform="translate(606.362592 230.792384) scale(0.1 -0.1)">
       <use xlink:href="#ArialMT-35"/>
       <use xlink:href="#ArialMT-30" x="55.615234"/>
      </g>
     </g>
    </g>
    <g id="ytick_21">
     <g id="line2d_62">
      <path d="M 624.484467 195.859333 
L 870.660938 195.859333 
" clip-path="url(#p044239d3b7)" style="fill: none; stroke: #cccccc; stroke-width: 0.8; stroke-linecap: round"/>
     </g>
     <g id="text_48">
      <!-- 55 -->
      <g style="fill: #262626" transform="translate(606.362592 199.43824) scale(0.1 -0.1)">
       <use xlink:href="#ArialMT-35"/>
       <use xlink:href="#ArialMT-35" x="55.615234"/>
      </g>
     </g>
    </g>
    <g id="ytick_22">
     <g id="line2d_63">
      <path d="M 624.484467 164.505189 
L 870.660938 164.505189 
" clip-path="url(#p044239d3b7)" style="fill: none; stroke: #cccccc; stroke-width: 0.8; stroke-linecap: round"/>
     </g>
     <g id="text_49">
      <!-- 60 -->
      <g style="fill: #262626" transform="translate(606.362592 168.084095) scale(0.1 -0.1)">
       <defs>
        <path id="ArialMT-36" d="M 3184 3459 
L 2625 3416 
Q 2550 3747 2413 3897 
Q 2184 4138 1850 4138 
Q 1581 4138 1378 3988 
Q 1113 3794 959 3422 
Q 806 3050 800 2363 
Q 1003 2672 1297 2822 
Q 1591 2972 1913 2972 
Q 2475 2972 2870 2558 
Q 3266 2144 3266 1488 
Q 3266 1056 3080 686 
Q 2894 316 2569 119 
Q 2244 -78 1831 -78 
Q 1128 -78 684 439 
Q 241 956 241 2144 
Q 241 3472 731 4075 
Q 1159 4600 1884 4600 
Q 2425 4600 2770 4297 
Q 3116 3994 3184 3459 
z
M 888 1484 
Q 888 1194 1011 928 
Q 1134 663 1356 523 
Q 1578 384 1822 384 
Q 2178 384 2434 671 
Q 2691 959 2691 1453 
Q 2691 1928 2437 2201 
Q 2184 2475 1800 2475 
Q 1419 2475 1153 2201 
Q 888 1928 888 1484 
z
" transform="scale(0.015625)"/>
       </defs>
       <use xlink:href="#ArialMT-36"/>
       <use xlink:href="#ArialMT-30" x="55.615234"/>
      </g>
     </g>
    </g>
    <g id="ytick_23">
     <g id="line2d_64">
      <path d="M 624.484467 133.151044 
L 870.660938 133.151044 
" clip-path="url(#p044239d3b7)" style="fill: none; stroke: #cccccc; stroke-width: 0.8; stroke-linecap: round"/>
     </g>
     <g id="text_50">
      <!-- 65 -->
      <g style="fill: #262626" transform="translate(606.362592 136.72995) scale(0.1 -0.1)">
       <use xlink:href="#ArialMT-36"/>
       <use xlink:href="#ArialMT-35" x="55.615234"/>
      </g>
     </g>
    </g>
    <g id="ytick_24">
     <g id="line2d_65">
      <path d="M 624.484467 101.7969 
L 870.660938 101.7969 
" clip-path="url(#p044239d3b7)" style="fill: none; stroke: #cccccc; stroke-width: 0.8; stroke-linecap: round"/>
     </g>
     <g id="text_51">
      <!-- 70 -->
      <g style="fill: #262626" transform="translate(606.362592 105.375806) scale(0.1 -0.1)">
       <use xlink:href="#ArialMT-37"/>
       <use xlink:href="#ArialMT-30" x="55.615234"/>
      </g>
     </g>
    </g>
    <g id="ytick_25">
     <g id="line2d_66">
      <path d="M 624.484467 70.442755 
L 870.660938 70.442755 
" clip-path="url(#p044239d3b7)" style="fill: none; stroke: #cccccc; stroke-width: 0.8; stroke-linecap: round"/>
     </g>
     <g id="text_52">
      <!-- 75 -->
      <g style="fill: #262626" transform="translate(606.362592 74.021661) scale(0.1 -0.1)">
       <use xlink:href="#ArialMT-37"/>
       <use xlink:href="#ArialMT-35" x="55.615234"/>
      </g>
     </g>
    </g>
   </g>
   <g id="PolyCollection_1">
    <defs>
     <path id="m379e7f16dd" d="M 683.630762 -203.129033 
L 683.630762 -203.129033 
L 691.623504 -129.069084 
L 699.616247 -92.472315 
L 707.608989 -62.26857 
L 715.601732 -35.781676 
L 715.601732 -284.508949 
L 715.601732 -284.508949 
L 707.608989 -275.230002 
L 699.616247 -265.778213 
L 691.623504 -252.633724 
L 683.630762 -203.129033 
z
" style="stroke: #ffffff; stroke-opacity: 0.8"/>
    </defs>
    <g clip-path="url(#p044239d3b7)">
     <use xlink:href="#m379e7f16dd" x="0" y="343.745312" style="fill: #1f77b4; fill-opacity: 0.8; stroke: #ffffff; stroke-opacity: 0.8"/>
    </g>
   </g>
   <g id="PolyCollection_2">
    <defs>
     <path id="mf9a8c484b0" d="M 683.630762 -203.129033 
L 683.630762 -203.129033 
L 691.623504 -149.705929 
L 699.616247 -120.856434 
L 707.608989 -96.465621 
L 715.601732 -75.315529 
L 715.601732 -237.923515 
L 715.601732 -237.923515 
L 707.608989 -236.149408 
L 699.616247 -234.365372 
L 691.623504 -230.72826 
L 683.630762 -203.129033 
z
" style="stroke: #ffffff; stroke-opacity: 0.8"/>
    </defs>
    <g clip-path="url(#p044239d3b7)">
     <use xlink:href="#mf9a8c484b0" x="0" y="343.745312" style="fill: #ff7f0e; fill-opacity: 0.8; stroke: #ffffff; stroke-opacity: 0.8"/>
    </g>
   </g>
   <g id="PolyCollection_3">
    <defs>
     <path id="m8400b4d69f" d="M 683.630762 -203.129033 
L 683.630762 -203.129033 
L 691.623504 -164.601765 
L 699.616247 -141.524401 
L 707.608989 -121.665608 
L 715.601732 -104.466379 
L 715.601732 -205.634395 
L 715.601732 -205.634395 
L 707.608989 -208.487024 
L 699.616247 -212.195444 
L 691.623504 -215.09629 
L 683.630762 -203.129033 
z
" style="stroke: #ffffff; stroke-opacity: 0.8"/>
    </defs>
    <g clip-path="url(#p044239d3b7)">
     <use xlink:href="#m8400b4d69f" x="0" y="343.745312" style="fill: #2ca02c; fill-opacity: 0.8; stroke: #ffffff; stroke-opacity: 0.8"/>
    </g>
   </g>
   <g id="PolyCollection_4">
    <defs>
     <path id="m05da422936" d="M 683.630762 -203.129033 
L 683.630762 -203.129033 
L 691.623504 -177.477183 
L 699.616247 -159.38248 
L 707.608989 -143.60965 
L 715.601732 -129.866752 
L 715.601732 -178.693716 
L 715.601732 -178.693716 
L 707.608989 -185.482913 
L 699.616247 -193.527892 
L 691.623504 -201.908403 
L 683.630762 -203.129033 
z
" style="stroke: #ffffff; stroke-opacity: 0.8"/>
    </defs>
    <g clip-path="url(#p044239d3b7)">
     <use xlink:href="#m05da422936" x="0" y="343.745312" style="fill: #d62728; fill-opacity: 0.8; stroke: #ffffff; stroke-opacity: 0.8"/>
    </g>
   </g>
   <g id="patch_17">
    <path d="M 683.630762 320.4 
L 683.630762 46.8 
L 763.558187 46.8 
L 763.558187 320.4 
z
" clip-path="url(#p044239d3b7)" style="fill: #808080; opacity: 0.2; stroke: #808080; stroke-linejoin: miter"/>
   </g>
   <g id="line2d_67">
    <path d="M 635.674306 81.058234 
L 643.667049 115.43115 
L 651.659792 117.779737 
L 659.652534 117.831833 
L 667.645277 121.212241 
L 675.638019 129.448307 
L 683.630762 140.616279 
L 691.623504 154.93399 
L 699.616247 168.771021 
L 707.608989 181.437608 
L 715.601732 192.478335 
L 723.594475 202.543657 
L 731.587217 211.923681 
L 739.57996 220.570039 
L 747.572702 228.320822 
L 755.565445 235.148361 
L 763.558187 240.999581 
L 771.55093 245.394343 
L 779.543672 248.001813 
L 787.536415 248.959054 
L 795.529158 248.491356 
L 803.5219 246.817832 
L 811.514643 244.158258 
L 819.507385 240.8178 
L 827.500128 236.909789 
L 835.49287 232.659122 
L 843.485613 228.284866 
L 851.478355 223.883943 
L 859.471098 219.352224 
" clip-path="url(#p044239d3b7)" style="fill: none; stroke: #0000ff; stroke-width: 1.5; stroke-linecap: round"/>
    <defs>
     <path id="mc0b01f2b56" d="M 0 1.5 
C 0.397805 1.5 0.77937 1.341951 1.06066 1.06066 
C 1.341951 0.77937 1.5 0.397805 1.5 0 
C 1.5 -0.397805 1.341951 -0.77937 1.06066 -1.06066 
C 0.77937 -1.341951 0.397805 -1.5 0 -1.5 
C -0.397805 -1.5 -0.77937 -1.341951 -1.06066 -1.06066 
C -1.341951 -0.77937 -1.5 -0.397805 -1.5 0 
C -1.5 0.397805 -1.341951 0.77937 -1.06066 1.06066 
C -0.77937 1.341951 -0.397805 1.5 0 1.5 
z
" style="stroke: #0000ff"/>
    </defs>
    <g clip-path="url(#p044239d3b7)">
     <use xlink:href="#mc0b01f2b56" x="635.674306" y="81.058234" style="fill-opacity: 0; stroke: #0000ff"/>
     <use xlink:href="#mc0b01f2b56" x="643.667049" y="115.43115" style="fill-opacity: 0; stroke: #0000ff"/>
     <use xlink:href="#mc0b01f2b56" x="651.659792" y="117.779737" style="fill-opacity: 0; stroke: #0000ff"/>
     <use xlink:href="#mc0b01f2b56" x="659.652534" y="117.831833" style="fill-opacity: 0; stroke: #0000ff"/>
     <use xlink:href="#mc0b01f2b56" x="667.645277" y="121.212241" style="fill-opacity: 0; stroke: #0000ff"/>
     <use xlink:href="#mc0b01f2b56" x="675.638019" y="129.448307" style="fill-opacity: 0; stroke: #0000ff"/>
     <use xlink:href="#mc0b01f2b56" x="683.630762" y="140.616279" style="fill-opacity: 0; stroke: #0000ff"/>
     <use xlink:href="#mc0b01f2b56" x="691.623504" y="154.93399" style="fill-opacity: 0; stroke: #0000ff"/>
     <use xlink:href="#mc0b01f2b56" x="699.616247" y="168.771021" style="fill-opacity: 0; stroke: #0000ff"/>
     <use xlink:href="#mc0b01f2b56" x="707.608989" y="181.437608" style="fill-opacity: 0; stroke: #0000ff"/>
     <use xlink:href="#mc0b01f2b56" x="715.601732" y="192.478335" style="fill-opacity: 0; stroke: #0000ff"/>
     <use xlink:href="#mc0b01f2b56" x="723.594475" y="202.543657" style="fill-opacity: 0; stroke: #0000ff"/>
     <use xlink:href="#mc0b01f2b56" x="731.587217" y="211.923681" style="fill-opacity: 0; stroke: #0000ff"/>
     <use xlink:href="#mc0b01f2b56" x="739.57996" y="220.570039" style="fill-opacity: 0; stroke: #0000ff"/>
     <use xlink:href="#mc0b01f2b56" x="747.572702" y="228.320822" style="fill-opacity: 0; stroke: #0000ff"/>
     <use xlink:href="#mc0b01f2b56" x="755.565445" y="235.148361" style="fill-opacity: 0; stroke: #0000ff"/>
     <use xlink:href="#mc0b01f2b56" x="763.558187" y="240.999581" style="fill-opacity: 0; stroke: #0000ff"/>
     <use xlink:href="#mc0b01f2b56" x="771.55093" y="245.394343" style="fill-opacity: 0; stroke: #0000ff"/>
     <use xlink:href="#mc0b01f2b56" x="779.543672" y="248.001813" style="fill-opacity: 0; stroke: #0000ff"/>
     <use xlink:href="#mc0b01f2b56" x="787.536415" y="248.959054" style="fill-opacity: 0; stroke: #0000ff"/>
     <use xlink:href="#mc0b01f2b56" x="795.529158" y="248.491356" style="fill-opacity: 0; stroke: #0000ff"/>
     <use xlink:href="#mc0b01f2b56" x="803.5219" y="246.817832" style="fill-opacity: 0; stroke: #0000ff"/>
     <use xlink:href="#mc0b01f2b56" x="811.514643" y="244.158258" style="fill-opacity: 0; stroke: #0000ff"/>
     <use xlink:href="#mc0b01f2b56" x="819.507385" y="240.8178" style="fill-opacity: 0; stroke: #0000ff"/>
     <use xlink:href="#mc0b01f2b56" x="827.500128" y="236.909789" style="fill-opacity: 0; stroke: #0000ff"/>
     <use xlink:href="#mc0b01f2b56" x="835.49287" y="232.659122" style="fill-opacity: 0; stroke: #0000ff"/>
     <use xlink:href="#mc0b01f2b56" x="843.485613" y="228.284866" style="fill-opacity: 0; stroke: #0000ff"/>
     <use xlink:href="#mc0b01f2b56" x="851.478355" y="223.883943" style="fill-opacity: 0; stroke: #0000ff"/>
     <use xlink:href="#mc0b01f2b56" x="859.471098" y="219.352224" style="fill-opacity: 0; stroke: #0000ff"/>
    </g>
   </g>
   <g id="line2d_68">
    <path d="M 683.630762 140.616279 
L 691.623504 154.063991 
L 699.616247 167.415518 
L 707.608989 179.420465 
L 715.601732 189.643856 
" clip-path="url(#p044239d3b7)" style="fill: none; stroke: #000000; stroke-opacity: 0.8; stroke-width: 1.5; stroke-linecap: round"/>
   </g>
   <g id="line2d_69">
    <path d="M 651.659792 320.4 
L 651.659792 46.8 
" clip-path="url(#p044239d3b7)" style="fill: none; stroke-dasharray: 5.55,2.4; stroke-dashoffset: 0; stroke: #808080; stroke-width: 1.5"/>
   </g>
   <g id="patch_18">
    <path d="M 624.484467 320.4 
L 624.484467 46.8 
" style="fill: none; stroke: #cccccc; stroke-width: 0.8; stroke-linejoin: miter; stroke-linecap: square"/>
   </g>
   <g id="patch_19">
    <path d="M 870.660938 320.4 
L 870.660938 46.8 
" style="fill: none; stroke: #cccccc; stroke-width: 0.8; stroke-linejoin: miter; stroke-linecap: square"/>
   </g>
   <g id="patch_20">
    <path d="M 624.484467 320.4 
L 870.660938 320.4 
" style="fill: none; stroke: #cccccc; stroke-width: 0.8; stroke-linejoin: miter; stroke-linecap: square"/>
   </g>
   <g id="patch_21">
    <path d="M 624.484467 46.8 
L 870.660938 46.8 
" style="fill: none; stroke: #cccccc; stroke-width: 0.8; stroke-linejoin: miter; stroke-linecap: square"/>
   </g>
   <g id="text_53">
    <!-- Debt simulations -->
    <g style="fill: #262626" transform="translate(695.830671 40.8) scale(0.14 -0.14)">
     <use xlink:href="#ArialMT-44"/>
     <use xlink:href="#ArialMT-65" x="72.216797"/>
     <use xlink:href="#ArialMT-62" x="127.832031"/>
     <use xlink:href="#ArialMT-74" x="183.447266"/>
     <use xlink:href="#ArialMT-20" x="211.230469"/>
     <use xlink:href="#ArialMT-73" x="239.013672"/>
     <use xlink:href="#ArialMT-69" x="289.013672"/>
     <use xlink:href="#ArialMT-6d" x="311.230469"/>
     <use xlink:href="#ArialMT-75" x="394.53125"/>
     <use xlink:href="#ArialMT-6c" x="450.146484"/>
     <use xlink:href="#ArialMT-61" x="472.363281"/>
     <use xlink:href="#ArialMT-74" x="527.978516"/>
     <use xlink:href="#ArialMT-69" x="555.761719"/>
     <use xlink:href="#ArialMT-6f" x="577.978516"/>
     <use xlink:href="#ArialMT-6e" x="633.59375"/>
     <use xlink:href="#ArialMT-73" x="689.208984"/>
    </g>
   </g>
   <g id="legend_3">
    <g id="patch_22">
     <path d="M 733.301563 139.790625 
L 863.660938 139.790625 
Q 865.660938 139.790625 865.660938 137.790625 
L 865.660938 53.8 
Q 865.660938 51.8 863.660938 51.8 
L 733.301563 51.8 
Q 731.301563 51.8 731.301563 53.8 
L 731.301563 137.790625 
Q 731.301563 139.790625 733.301563 139.790625 
z
" style="fill: #ffffff; opacity: 0.8; stroke: #cccccc; stroke-linejoin: miter"/>
    </g>
    <g id="line2d_70">
     <path d="M 735.301563 59.457812 
L 745.301563 59.457812 
L 755.301563 59.457812 
" style="fill: none; stroke: #0000ff; stroke-width: 1.5; stroke-linecap: round"/>
     <g>
      <use xlink:href="#mc0b01f2b56" x="745.301563" y="59.457812" style="fill-opacity: 0; stroke: #0000ff"/>
     </g>
    </g>
    <g id="text_54">
     <!-- Deterministic scenario -->
     <g style="fill: #262626" transform="translate(763.301563 62.957812) scale(0.1 -0.1)">
      <use xlink:href="#ArialMT-44"/>
      <use xlink:href="#ArialMT-65" x="72.216797"/>
      <use xlink:href="#ArialMT-74" x="127.832031"/>
      <use xlink:href="#ArialMT-65" x="155.615234"/>
      <use xlink:href="#ArialMT-72" x="211.230469"/>
      <use xlink:href="#ArialMT-6d" x="244.53125"/>
      <use xlink:href="#ArialMT-69" x="327.832031"/>
      <use xlink:href="#ArialMT-6e" x="350.048828"/>
      <use xlink:href="#ArialMT-69" x="405.664062"/>
      <use xlink:href="#ArialMT-73" x="427.880859"/>
      <use xlink:href="#ArialMT-74" x="477.880859"/>
      <use xlink:href="#ArialMT-69" x="505.664062"/>
      <use xlink:href="#ArialMT-63" x="527.880859"/>
      <use xlink:href="#ArialMT-20" x="577.880859"/>
      <use xlink:href="#ArialMT-73" x="605.664062"/>
      <use xlink:href="#ArialMT-63" x="655.664062"/>
      <use xlink:href="#ArialMT-65" x="705.664062"/>
      <use xlink:href="#ArialMT-6e" x="761.279297"/>
      <use xlink:href="#ArialMT-61" x="816.894531"/>
      <use xlink:href="#ArialMT-72" x="872.509766"/>
      <use xlink:href="#ArialMT-69" x="905.810547"/>
      <use xlink:href="#ArialMT-6f" x="928.027344"/>
     </g>
    </g>
    <g id="patch_23">
     <path d="M 735.301563 77.132812 
L 755.301563 77.132812 
L 755.301563 70.132812 
L 735.301563 70.132812 
z
" style="fill: #1f77b4; fill-opacity: 0.8; stroke: #ffffff; stroke-opacity: 0.8; stroke-linejoin: miter"/>
    </g>
    <g id="text_55">
     <!-- 10th-90th percentile -->
     <g style="fill: #262626" transform="translate(763.301563 77.132812) scale(0.1 -0.1)">
      <use xlink:href="#ArialMT-31"/>
      <use xlink:href="#ArialMT-30" x="55.615234"/>
      <use xlink:href="#ArialMT-74" x="111.230469"/>
      <use xlink:href="#ArialMT-68" x="139.013672"/>
      <use xlink:href="#ArialMT-2d" x="194.628906"/>
      <use xlink:href="#ArialMT-39" x="227.929688"/>
      <use xlink:href="#ArialMT-30" x="283.544922"/>
      <use xlink:href="#ArialMT-74" x="339.160156"/>
      <use xlink:href="#ArialMT-68" x="366.943359"/>
      <use xlink:href="#ArialMT-20" x="422.558594"/>
      <use xlink:href="#ArialMT-70" x="450.341797"/>
      <use xlink:href="#ArialMT-65" x="505.957031"/>
      <use xlink:href="#ArialMT-72" x="561.572266"/>
      <use xlink:href="#ArialMT-63" x="594.873047"/>
      <use xlink:href="#ArialMT-65" x="644.873047"/>
      <use xlink:href="#ArialMT-6e" x="700.488281"/>
      <use xlink:href="#ArialMT-74" x="756.103516"/>
      <use xlink:href="#ArialMT-69" x="783.886719"/>
      <use xlink:href="#ArialMT-6c" x="806.103516"/>
      <use xlink:href="#ArialMT-65" x="828.320312"/>
     </g>
    </g>
    <g id="patch_24">
     <path d="M 735.301563 91.307812 
L 755.301563 91.307812 
L 755.301563 84.307812 
L 735.301563 84.307812 
z
" style="fill: #ff7f0e; fill-opacity: 0.8; stroke: #ffffff; stroke-opacity: 0.8; stroke-linejoin: miter"/>
    </g>
    <g id="text_56">
     <!-- 20th-80th percentile -->
     <g style="fill: #262626" transform="translate(763.301563 91.307812) scale(0.1 -0.1)">
      <use xlink:href="#ArialMT-32"/>
      <use xlink:href="#ArialMT-30" x="55.615234"/>
      <use xlink:href="#ArialMT-74" x="111.230469"/>
      <use xlink:href="#ArialMT-68" x="139.013672"/>
      <use xlink:href="#ArialMT-2d" x="194.628906"/>
      <use xlink:href="#ArialMT-38" x="227.929688"/>
      <use xlink:href="#ArialMT-30" x="283.544922"/>
      <use xlink:href="#ArialMT-74" x="339.160156"/>
      <use xlink:href="#ArialMT-68" x="366.943359"/>
      <use xlink:href="#ArialMT-20" x="422.558594"/>
      <use xlink:href="#ArialMT-70" x="450.341797"/>
      <use xlink:href="#ArialMT-65" x="505.957031"/>
      <use xlink:href="#ArialMT-72" x="561.572266"/>
      <use xlink:href="#ArialMT-63" x="594.873047"/>
      <use xlink:href="#ArialMT-65" x="644.873047"/>
      <use xlink:href="#ArialMT-6e" x="700.488281"/>
      <use xlink:href="#ArialMT-74" x="756.103516"/>
      <use xlink:href="#ArialMT-69" x="783.886719"/>
      <use xlink:href="#ArialMT-6c" x="806.103516"/>
      <use xlink:href="#ArialMT-65" x="828.320312"/>
     </g>
    </g>
    <g id="patch_25">
     <path d="M 735.301563 105.482812 
L 755.301563 105.482812 
L 755.301563 98.482812 
L 735.301563 98.482812 
z
" style="fill: #2ca02c; fill-opacity: 0.8; stroke: #ffffff; stroke-opacity: 0.8; stroke-linejoin: miter"/>
    </g>
    <g id="text_57">
     <!-- 30th-70th percentile -->
     <g style="fill: #262626" transform="translate(763.301563 105.482812) scale(0.1 -0.1)">
      <use xlink:href="#ArialMT-33"/>
      <use xlink:href="#ArialMT-30" x="55.615234"/>
      <use xlink:href="#ArialMT-74" x="111.230469"/>
      <use xlink:href="#ArialMT-68" x="139.013672"/>
      <use xlink:href="#ArialMT-2d" x="194.628906"/>
      <use xlink:href="#ArialMT-37" x="227.929688"/>
      <use xlink:href="#ArialMT-30" x="283.544922"/>
      <use xlink:href="#ArialMT-74" x="339.160156"/>
      <use xlink:href="#ArialMT-68" x="366.943359"/>
      <use xlink:href="#ArialMT-20" x="422.558594"/>
      <use xlink:href="#ArialMT-70" x="450.341797"/>
      <use xlink:href="#ArialMT-65" x="505.957031"/>
      <use xlink:href="#ArialMT-72" x="561.572266"/>
      <use xlink:href="#ArialMT-63" x="594.873047"/>
      <use xlink:href="#ArialMT-65" x="644.873047"/>
      <use xlink:href="#ArialMT-6e" x="700.488281"/>
      <use xlink:href="#ArialMT-74" x="756.103516"/>
      <use xlink:href="#ArialMT-69" x="783.886719"/>
      <use xlink:href="#ArialMT-6c" x="806.103516"/>
      <use xlink:href="#ArialMT-65" x="828.320312"/>
     </g>
    </g>
    <g id="patch_26">
     <path d="M 735.301563 119.657812 
L 755.301563 119.657812 
L 755.301563 112.657812 
L 735.301563 112.657812 
z
" style="fill: #d62728; fill-opacity: 0.8; stroke: #ffffff; stroke-opacity: 0.8; stroke-linejoin: miter"/>
    </g>
    <g id="text_58">
     <!-- 40th-60th percentile -->
     <g style="fill: #262626" transform="translate(763.301563 119.657812) scale(0.1 -0.1)">
      <use xlink:href="#ArialMT-34"/>
      <use xlink:href="#ArialMT-30" x="55.615234"/>
      <use xlink:href="#ArialMT-74" x="111.230469"/>
      <use xlink:href="#ArialMT-68" x="139.013672"/>
      <use xlink:href="#ArialMT-2d" x="194.628906"/>
      <use xlink:href="#ArialMT-36" x="227.929688"/>
      <use xlink:href="#ArialMT-30" x="283.544922"/>
      <use xlink:href="#ArialMT-74" x="339.160156"/>
      <use xlink:href="#ArialMT-68" x="366.943359"/>
      <use xlink:href="#ArialMT-20" x="422.558594"/>
      <use xlink:href="#ArialMT-70" x="450.341797"/>
      <use xlink:href="#ArialMT-65" x="505.957031"/>
      <use xlink:href="#ArialMT-72" x="561.572266"/>
      <use xlink:href="#ArialMT-63" x="594.873047"/>
      <use xlink:href="#ArialMT-65" x="644.873047"/>
      <use xlink:href="#ArialMT-6e" x="700.488281"/>
      <use xlink:href="#ArialMT-74" x="756.103516"/>
      <use xlink:href="#ArialMT-69" x="783.886719"/>
      <use xlink:href="#ArialMT-6c" x="806.103516"/>
      <use xlink:href="#ArialMT-65" x="828.320312"/>
     </g>
    </g>
    <g id="line2d_71">
     <path d="M 735.301563 130.303125 
L 745.301563 130.303125 
L 755.301563 130.303125 
" style="fill: none; stroke: #000000; stroke-opacity: 0.8; stroke-width: 1.5; stroke-linecap: round"/>
    </g>
    <g id="text_59">
     <!-- Median -->
     <g style="fill: #262626" transform="translate(763.301563 133.803125) scale(0.1 -0.1)">
      <defs>
       <path id="ArialMT-4d" d="M 475 0 
L 475 4581 
L 1388 4581 
L 2472 1338 
Q 2622 884 2691 659 
Q 2769 909 2934 1394 
L 4031 4581 
L 4847 4581 
L 4847 0 
L 4263 0 
L 4263 3834 
L 2931 0 
L 2384 0 
L 1059 3900 
L 1059 0 
L 475 0 
z
" transform="scale(0.015625)"/>
      </defs>
      <use xlink:href="#ArialMT-4d"/>
      <use xlink:href="#ArialMT-65" x="83.300781"/>
      <use xlink:href="#ArialMT-64" x="138.916016"/>
      <use xlink:href="#ArialMT-69" x="194.53125"/>
      <use xlink:href="#ArialMT-61" x="216.748047"/>
      <use xlink:href="#ArialMT-6e" x="272.363281"/>
     </g>
    </g>
   </g>
  </g>
  <g id="axes_4">
   <g id="matplotlib.axis_7">
    <g id="ytick_26">
     <g id="line2d_72">
      <defs>
       <path id="m55b5e2d7a7" d="M 0 0 
L 3.5 0 
" style="stroke: #262626; stroke-width: 0.8"/>
      </defs>
      <g>
       <use xlink:href="#m55b5e2d7a7" x="279.837408" y="311.535518" style="fill: #262626; stroke: #262626; stroke-width: 0.8"/>
      </g>
     </g>
     <g id="text_60">
      <!-- 4 -->
      <g style="fill: #262626" transform="translate(286.837408 315.114424) scale(0.1 -0.1)">
       <use xlink:href="#ArialMT-34"/>
      </g>
     </g>
    </g>
    <g id="ytick_27">
     <g id="line2d_73">
      <g>
       <use xlink:href="#m55b5e2d7a7" x="279.837408" y="274.099565" style="fill: #262626; stroke: #262626; stroke-width: 0.8"/>
      </g>
     </g>
     <g id="text_61">
      <!-- 6 -->
      <g style="fill: #262626" transform="translate(286.837408 277.678471) scale(0.1 -0.1)">
       <use xlink:href="#ArialMT-36"/>
      </g>
     </g>
    </g>
    <g id="ytick_28">
     <g id="line2d_74">
      <g>
       <use xlink:href="#m55b5e2d7a7" x="279.837408" y="236.663613" style="fill: #262626; stroke: #262626; stroke-width: 0.8"/>
      </g>
     </g>
     <g id="text_62">
      <!-- 8 -->
      <g style="fill: #262626" transform="translate(286.837408 240.242519) scale(0.1 -0.1)">
       <use xlink:href="#ArialMT-38"/>
      </g>
     </g>
    </g>
    <g id="ytick_29">
     <g id="line2d_75">
      <g>
       <use xlink:href="#m55b5e2d7a7" x="279.837408" y="199.22766" style="fill: #262626; stroke: #262626; stroke-width: 0.8"/>
      </g>
     </g>
     <g id="text_63">
      <!-- 10 -->
      <g style="fill: #262626" transform="translate(286.837408 202.806567) scale(0.1 -0.1)">
       <use xlink:href="#ArialMT-31"/>
       <use xlink:href="#ArialMT-30" x="55.615234"/>
      </g>
     </g>
    </g>
    <g id="ytick_30">
     <g id="line2d_76">
      <g>
       <use xlink:href="#m55b5e2d7a7" x="279.837408" y="161.791708" style="fill: #262626; stroke: #262626; stroke-width: 0.8"/>
      </g>
     </g>
     <g id="text_64">
      <!-- 12 -->
      <g style="fill: #262626" transform="translate(286.837408 165.370614) scale(0.1 -0.1)">
       <use xlink:href="#ArialMT-31"/>
       <use xlink:href="#ArialMT-32" x="55.615234"/>
      </g>
     </g>
    </g>
    <g id="ytick_31">
     <g id="line2d_77">
      <g>
       <use xlink:href="#m55b5e2d7a7" x="279.837408" y="124.355756" style="fill: #262626; stroke: #262626; stroke-width: 0.8"/>
      </g>
     </g>
     <g id="text_65">
      <!-- 14 -->
      <g style="fill: #262626" transform="translate(286.837408 127.934662) scale(0.1 -0.1)">
       <use xlink:href="#ArialMT-31"/>
       <use xlink:href="#ArialMT-34" x="55.615234"/>
      </g>
     </g>
    </g>
    <g id="ytick_32">
     <g id="line2d_78">
      <g>
       <use xlink:href="#m55b5e2d7a7" x="279.837408" y="86.919803" style="fill: #262626; stroke: #262626; stroke-width: 0.8"/>
      </g>
     </g>
     <g id="text_66">
      <!-- 16 -->
      <g style="fill: #262626" transform="translate(286.837408 90.49871) scale(0.1 -0.1)">
       <use xlink:href="#ArialMT-31"/>
       <use xlink:href="#ArialMT-36" x="55.615234"/>
      </g>
     </g>
    </g>
    <g id="ytick_33">
     <g id="line2d_79">
      <g>
       <use xlink:href="#m55b5e2d7a7" x="279.837408" y="49.483851" style="fill: #262626; stroke: #262626; stroke-width: 0.8"/>
      </g>
     </g>
     <g id="text_67">
      <!-- 18 -->
      <g style="fill: #262626" transform="translate(286.837408 53.062757) scale(0.1 -0.1)">
       <use xlink:href="#ArialMT-31"/>
       <use xlink:href="#ArialMT-38" x="55.615234"/>
      </g>
     </g>
    </g>
   </g>
   <g id="line2d_80">
    <path d="M 44.850777 304.203308 
L 52.84352 274.239969 
L 60.836262 266.263056 
L 68.829005 260.389716 
L 76.821747 256.011502 
L 84.81449 252.777105 
L 92.807232 250.464485 
L 100.799975 248.884787 
L 108.792717 247.893856 
L 116.78546 247.392968 
L 124.778203 247.302273 
L 132.770945 247.555266 
L 140.763688 248.346867 
L 148.75643 249.580408 
L 156.749173 251.18005 
L 164.741915 253.08253 
L 172.734658 255.235607 
L 180.7274 257.594918 
L 188.720143 260.127159 
L 196.712886 262.804843 
L 204.705628 265.599014 
L 212.698371 268.481864 
L 220.691113 271.429285 
L 228.683856 274.422135 
L 236.676598 277.445179 
L 244.669341 280.487908 
L 252.662083 283.543139 
L 260.654826 286.606634 
L 268.647569 289.675992 
" clip-path="url(#pe516d4a84c)" style="fill: none; stroke: #ff7f0e; stroke-width: 1.5; stroke-linecap: round"/>
   </g>
   <g id="line2d_81">
    <path d="M 44.850777 191.057817 
L 52.84352 59.236364 
L 60.836262 247.122761 
L 68.829005 276.919191 
L 76.821747 278.884437 
L 84.81449 277.503467 
L 92.807232 283.396138 
L 100.799975 275.592921 
L 108.792717 282.576904 
L 116.78546 290.455591 
L 124.778203 297.370249 
L 132.770945 299.706605 
L 140.763688 299.868946 
L 148.75643 300.03164 
L 156.749173 301.031722 
L 164.741915 301.840199 
L 172.734658 302.841293 
L 180.7274 305.189125 
L 188.720143 307.345494 
L 196.712886 307.963636 
L 204.705628 307.620006 
L 212.698371 306.89156 
L 220.691113 305.777883 
L 228.683856 304.279059 
L 236.676598 303.357291 
L 244.669341 302.435416 
L 252.662083 301.128105 
L 260.654826 300.205775 
L 268.647569 300.054034 
" clip-path="url(#pe516d4a84c)" style="fill: none; stroke: #2ca02c; stroke-width: 1.5; stroke-linecap: round"/>
   </g>
   <g id="patch_27">
    <path d="M 33.660938 320.4 
L 33.660938 46.8 
" style="fill: none; stroke: #cccccc; stroke-width: 0.8; stroke-linejoin: miter; stroke-linecap: square"/>
   </g>
   <g id="patch_28">
    <path d="M 279.837408 320.4 
L 279.837408 46.8 
" style="fill: none; stroke: #cccccc; stroke-width: 0.8; stroke-linejoin: miter; stroke-linecap: square"/>
   </g>
   <g id="patch_29">
    <path d="M 33.660937 320.4 
L 279.837408 320.4 
" style="fill: none; stroke: #cccccc; stroke-width: 0.8; stroke-linejoin: miter; stroke-linecap: square"/>
   </g>
   <g id="patch_30">
    <path d="M 33.660937 46.8 
L 279.837408 46.8 
" style="fill: none; stroke: #cccccc; stroke-width: 0.8; stroke-linejoin: miter; stroke-linecap: square"/>
   </g>
  </g>
  <g id="text_68">
   <!-- Hungary: 4-year scenario -->
   <g style="fill: #262626" transform="translate(348.847188 18.6525) scale(0.16 -0.16)">
    <defs>
     <path id="ArialMT-48" d="M 513 0 
L 513 4581 
L 1119 4581 
L 1119 2700 
L 3500 2700 
L 3500 4581 
L 4106 4581 
L 4106 0 
L 3500 0 
L 3500 2159 
L 1119 2159 
L 1119 0 
L 513 0 
z
" transform="scale(0.015625)"/>
     <path id="ArialMT-3a" d="M 578 2678 
L 578 3319 
L 1219 3319 
L 1219 2678 
L 578 2678 
z
M 578 0 
L 578 641 
L 1219 641 
L 1219 0 
L 578 0 
z
" transform="scale(0.015625)"/>
    </defs>
    <use xlink:href="#ArialMT-48"/>
    <use xlink:href="#ArialMT-75" x="72.216797"/>
    <use xlink:href="#ArialMT-6e" x="127.832031"/>
    <use xlink:href="#ArialMT-67" x="183.447266"/>
    <use xlink:href="#ArialMT-61" x="239.0625"/>
    <use xlink:href="#ArialMT-72" x="294.677734"/>
    <use xlink:href="#ArialMT-79" x="327.978516"/>
    <use xlink:href="#ArialMT-3a" x="377.978516"/>
    <use xlink:href="#ArialMT-20" x="405.761719"/>
    <use xlink:href="#ArialMT-34" x="433.544922"/>
    <use xlink:href="#ArialMT-2d" x="489.160156"/>
    <use xlink:href="#ArialMT-79" x="522.460938"/>
    <use xlink:href="#ArialMT-65" x="572.460938"/>
    <use xlink:href="#ArialMT-61" x="628.076172"/>
    <use xlink:href="#ArialMT-72" x="683.691406"/>
    <use xlink:href="#ArialMT-20" x="716.992188"/>
    <use xlink:href="#ArialMT-73" x="744.775391"/>
    <use xlink:href="#ArialMT-63" x="794.775391"/>
    <use xlink:href="#ArialMT-65" x="844.775391"/>
    <use xlink:href="#ArialMT-6e" x="900.390625"/>
    <use xlink:href="#ArialMT-61" x="956.005859"/>
    <use xlink:href="#ArialMT-72" x="1011.621094"/>
    <use xlink:href="#ArialMT-69" x="1044.921875"/>
    <use xlink:href="#ArialMT-6f" x="1067.138672"/>
   </g>
  </g>
 </g>
 <defs>
  <clipPath id="pe516d4a84c">
   <rect x="33.660938" y="46.8" width="246.176471" height="273.6"/>
  </clipPath>
  <clipPath id="p4ca323226e">
   <rect x="329.072702" y="46.8" width="246.176471" height="273.6"/>
  </clipPath>
  <clipPath id="p044239d3b7">
   <rect x="624.484467" y="46.8" width="246.176471" height="273.6"/>
  </clipPath>
 </defs>
</svg>
